<?xml version="1.0" standalone="no"?>
<!DOCTYPE svg PUBLIC "-//W3C//DTD SVG 20010904//EN"
 "http://www.w3.org/TR/2001/REC-SVG-20010904/DTD/svg10.dtd">
<svg version="1.0" xmlns="http://www.w3.org/2000/svg"
 width="508.000000pt" height="508.000000pt" viewBox="0 0 508.000000 508.000000"
 preserveAspectRatio="xMidYMid meet">
<metadata>
Created by potrace 1.11, written by Peter Selinger 2001-2013
</metadata>
<g transform="translate(0.000000,508.000000) scale(0.100000,-0.100000)"
fill="#000000" stroke="none">
<path d="M2390 5074 c-30 -2 -111 -11 -180 -20 -135 -17 -186 -33 -110 -34 25
0 84 -5 130 -11 75 -9 89 -14 118 -42 29 -28 31 -32 15 -39 -14 -5 -11 -7 10
-7 17 -1 39 -12 55 -28 26 -27 29 -28 142 -27 74 0 136 6 174 17 44 12 63 13
73 5 8 -6 17 -8 20 -4 4 4 2 11 -5 15 -8 5 1 11 25 19 33 10 42 9 79 -13 24
-14 51 -25 62 -25 13 0 25 -14 37 -40 l18 -41 -42 -43 -42 -43 0 -169 c0 -144
-3 -172 -17 -188 -9 -11 -12 -16 -6 -13 15 9 28 -24 13 -33 -8 -5 -7 -13 2
-29 11 -17 11 -25 1 -41 -7 -12 -8 -20 -2 -20 5 0 10 -9 10 -20 0 -11 6 -20
13 -20 7 0 31 -18 52 -40 21 -22 45 -40 51 -40 9 0 11 -11 8 -32 -4 -25 1 -42
20 -68 14 -19 30 -45 35 -57 7 -14 19 -23 33 -23 22 1 22 1 4 15 -19 14 -18
15 17 15 39 0 40 -8 11 -55 -10 -15 -10 -31 -4 -60 13 -53 12 -115 0 -115 -5
0 -10 -4 -10 -10 0 -5 7 -10 15 -10 8 0 15 -8 15 -17 0 -10 3 -28 6 -41 6 -21
4 -22 -22 -16 -16 3 -41 12 -56 19 -24 11 -28 11 -28 -1 0 -16 -16 -19 -25 -4
-4 6 -10 8 -14 5 -5 -2 -19 4 -31 15 -27 24 -40 25 -40 6 0 -8 19 -21 42 -28
23 -8 44 -21 47 -29 4 -12 2 -12 -12 0 -10 7 -17 9 -17 3 0 -5 7 -12 15 -16 9
-3 12 -12 8 -22 -5 -14 -3 -16 11 -11 10 4 26 2 36 -3 16 -8 18 -7 14 4 -3 8
-14 16 -26 19 -12 4 -18 12 -16 24 4 21 34 24 66 4 12 -7 31 -11 42 -8 15 4
24 -2 35 -23 8 -16 15 -39 15 -51 0 -18 -2 -19 -15 -9 -11 9 -15 9 -15 1 0 -6
20 -24 45 -39 24 -14 47 -33 50 -40 3 -8 0 -10 -8 -5 -12 8 -109 12 -101 4 2
-2 -4 -10 -13 -16 -14 -11 -20 -10 -30 4 -11 15 -12 15 -13 -2 0 -15 -4 -13
-24 10 -22 24 -24 25 -20 7 5 -20 3 -21 -35 -14 -22 4 -53 5 -68 2 -25 -5 -27
-4 -14 12 8 9 12 19 9 22 -10 9 -147 -48 -153 -64 -10 -28 33 -43 54 -18 10
12 87 12 100 0 3 -2 -5 -17 -17 -33 l-21 -29 37 -5 c20 -2 52 2 70 9 27 11 38
11 55 1 20 -11 19 -12 -20 -15 -37 -3 -43 -6 -43 -25 0 -12 -7 -30 -14 -40
-13 -16 -14 -17 -20 0 -4 10 -1 20 9 25 28 16 15 25 -46 32 -70 7 -95 -4 -79
-34 15 -27 12 -38 -10 -44 -11 -3 -30 -9 -41 -12 -14 -4 -19 -2 -15 5 4 6 0
12 -8 13 -9 0 -20 1 -26 2 -5 1 -9 -3 -7 -9 1 -5 7 -9 12 -7 6 2 3 -4 -5 -12
-20 -21 -59 -10 -57 15 1 10 7 19 14 19 6 0 15 5 18 10 4 6 -5 10 -24 8 -17
-1 -31 -7 -31 -13 0 -26 -86 -70 -114 -59 -13 5 -33 -13 -24 -22 3 -2 26 0 53
5 52 10 105 -2 105 -24 0 -7 -9 -24 -20 -37 -10 -14 -16 -28 -13 -32 3 -3 -8
-6 -25 -6 -18 0 -32 4 -32 8 0 5 -10 8 -21 8 -12 -1 -24 4 -26 10 -6 17 25 26
48 14 24 -13 61 4 53 25 -10 25 -60 29 -83 6 -12 -12 -26 -21 -31 -21 -5 0
-12 0 -15 0 -3 0 -5 3 -5 8 0 4 4 7 9 7 5 0 13 3 17 8 4 4 0 7 -9 7 -20 0 -29
14 -21 34 4 10 18 16 36 16 27 0 29 2 17 17 -13 15 -11 16 18 10 33 -7 63 -1
63 12 0 4 -14 5 -31 3 -22 -3 -30 -1 -25 7 5 8 0 8 -20 1 -34 -13 -42 -6 -21
18 23 25 21 39 -5 44 -56 10 -77 -17 -36 -46 12 -9 19 -18 15 -22 -3 -4 -20 8
-37 25 -17 17 -26 31 -19 31 10 0 10 3 2 11 -7 7 -20 9 -30 5 -15 -6 -15 -9
-3 -16 21 -13 5 -23 -18 -11 -18 9 -19 8 -14 -11 4 -18 2 -20 -14 -13 -10 4
-36 10 -57 13 -38 4 -38 5 -33 41 3 20 5 44 6 53 0 10 12 24 27 31 26 14 26
15 5 21 -20 7 -21 13 -18 64 2 31 0 91 -4 132 -4 41 -8 64 -9 52 0 -15 -9 -26
-21 -29 -11 -3 -17 -9 -14 -14 7 -11 -41 -70 -50 -62 -3 4 -6 0 -6 -7 0 -20
-62 -71 -78 -65 -9 3 -12 0 -9 -7 3 -9 -8 -13 -37 -14 -22 -1 -67 -4 -99 -7
l-59 -5 4 37 c6 47 -9 89 -41 118 -14 13 -38 34 -53 47 -17 16 -45 27 -75 31
-26 3 -56 10 -65 16 -10 5 -27 9 -38 9 -11 0 -20 4 -20 8 0 5 -16 14 -35 22
-19 8 -35 18 -35 22 0 5 -4 6 -10 3 -6 -3 -10 5 -10 19 0 19 7 27 33 35 42 13
219 31 307 31 60 0 71 3 84 22 9 12 16 27 16 33 0 32 -345 46 -495 20 l-87
-15 -41 30 c-61 45 -277 261 -278 279 -1 9 -3 26 -4 39 -1 12 2 22 7 22 5 0 6
4 3 10 -8 13 -73 -21 -105 -55 -14 -15 -42 -41 -64 -58 l-38 -30 -160 -1 -159
-1 -6 28 c-3 15 -9 30 -14 32 -4 3 -30 -22 -58 -55 -155 -186 -367 -537 -345
-571 4 -7 3 -9 -3 -6 -14 9 -81 -154 -127 -306 -38 -125 -41 -142 -27 -133 5
3 11 0 14 -8 4 -9 0 -12 -12 -9 -15 4 -20 -9 -34 -79 -76 -377 -70 -738 18
-1102 82 -341 261 -712 469 -971 432 -538 1028 -872 1711 -956 163 -20 465
-15 635 10 551 83 1010 308 1418 695 57 55 183 194 148 164 -4 -3 -17 3 -28
14 -11 11 -26 17 -34 14 -21 -8 -17 7 5 21 15 9 20 9 24 0 2 -7 19 -12 38 -11
25 1 40 10 65 40 l33 39 -22 25 -22 25 23 -20 c23 -19 24 -19 38 0 18 25 18
35 -2 35 -10 0 -14 -6 -10 -15 7 -19 -1 -19 -20 -1 -16 16 -19 30 -5 21 5 -3
12 -1 16 5 9 14 45 12 45 -2 0 -9 4 -8 10 2 14 21 12 30 -6 30 -8 0 -12 5 -9
10 3 6 17 10 30 10 31 0 65 56 57 96 -5 25 -3 27 10 16 14 -11 19 -9 32 9 14
21 14 24 -1 41 -9 10 -11 18 -5 18 6 0 14 -5 17 -11 9 -13 33 20 38 51 2 12 9
25 16 30 10 5 10 12 2 28 -9 17 -8 19 8 15 14 -4 24 11 51 71 18 41 30 82 27
91 -4 9 -1 15 7 15 16 0 29 41 20 64 -4 10 -1 16 8 16 16 0 52 106 92 265 154
618 63 1274 -252 1832 l-47 83 -470 0 -470 -1 -30 -67 c-16 -37 -48 -101 -71
-142 -23 -41 -45 -85 -49 -97 -3 -13 -9 -23 -13 -23 -4 0 -20 30 -35 66 -22
52 -26 69 -16 80 6 8 18 14 25 14 8 0 14 4 14 10 0 5 7 7 15 3 13 -4 12 3 -6
36 -11 22 -23 41 -26 41 -2 0 -2 -3 0 -7 11 -18 -13 -53 -36 -53 -20 0 -29 11
-51 59 -14 32 -26 65 -26 72 0 8 -7 23 -15 33 -24 31 -19 66 8 66 58 0 66 -9
62 -62 l-4 -49 32 3 c29 3 34 -1 55 -42 12 -25 26 -46 30 -47 4 -2 7 34 7 80
-1 87 7 117 30 117 8 0 15 9 15 20 0 11 7 20 15 20 18 0 18 8 0 40 -22 38 -18
46 8 14 12 -16 21 -32 19 -37 -1 -5 2 -6 8 -2 5 3 10 -1 10 -10 0 -9 7 -23 15
-31 23 -24 19 -11 -34 94 -62 123 -60 116 -25 123 l29 7 -27 1 c-24 1 -33 14
-96 144 l-70 143 13 69 c8 38 11 73 8 78 -3 5 -53 31 -112 58 -58 27 -123 57
-143 67 -38 17 -49 32 -24 32 7 0 44 -14 81 -31 37 -16 70 -28 72 -25 3 3 -14
54 -39 113 l-45 108 -87 27 c-99 32 -291 72 -416 88 -95 11 -365 20 -450 14z
m1111 -865 c-5 -13 -10 -19 -10 -12 -1 15 10 45 15 40 3 -2 0 -15 -5 -28z m47
-83 c2 -23 -1 -36 -6 -32 -6 3 -29 7 -51 8 -23 1 -41 5 -41 10 0 4 4 8 9 8 5
0 12 12 15 26 6 21 11 25 39 22 29 -3 32 -6 35 -42z m144 -126 c-2 -3 -7 1
-10 9 -4 11 -6 11 -13 0 -5 -8 -7 -1 -7 19 l1 32 17 -27 c10 -16 15 -30 12
-33z m-3156 -89 c-3 -5 1 -11 9 -14 33 -13 47 -67 43 -159 -5 -102 -14 -118
-53 -92 -15 10 -23 20 -17 22 12 4 5 61 -11 80 -5 7 -16 11 -23 8 -18 -7 -27
10 -20 39 4 17 11 22 26 18 17 -5 20 0 20 26 0 27 -3 32 -22 29 -11 -2 -23 3
-25 10 -3 7 5 12 21 12 15 0 29 7 32 15 4 8 10 15 16 15 5 0 7 -4 4 -9z m-106
-35 c0 -3 -4 -8 -10 -11 -5 -3 -10 -1 -10 4 0 6 5 11 10 11 6 0 10 -2 10 -4z
m3020 -47 c0 -5 -4 -9 -10 -9 -5 0 -10 7 -10 16 0 8 5 12 10 9 6 -3 10 -10 10
-16z m-1813 -56 c-3 -10 -5 -4 -5 12 0 17 2 24 5 18 2 -7 2 -21 0 -30z m1803
0 c0 -14 -2 -15 -9 -4 -7 11 -9 11 -14 0 -4 -10 -6 -9 -6 4 -1 9 6 17 14 17 8
0 15 -8 15 -17z m-2936 -88 c-4 -8 -8 -15 -10 -15 -2 0 -4 7 -4 15 0 8 4 15
10 15 5 0 7 -7 4 -15z m38 -62 c18 -21 30 -53 20 -53 -13 1 -42 27 -42 39 0 6
-7 11 -15 11 -8 0 -15 5 -15 10 0 16 36 11 52 -7z m213 -36 c23 -155 29 -191
47 -271 11 -49 27 -111 37 -136 43 -114 157 -235 297 -318 38 -23 74 -45 79
-49 6 -4 15 -9 20 -10 30 -7 88 -31 94 -39 3 -5 15 -10 26 -10 11 -1 58 -8
105 -14 90 -14 285 -6 274 11 -3 5 -27 7 -53 5 -61 -5 -81 5 -58 29 10 9 17
12 17 7 0 -11 50 -4 66 10 7 5 42 11 78 13 37 2 71 7 77 11 12 7 49 -24 49
-42 0 -19 111 16 191 60 75 41 178 138 213 200 13 22 32 71 41 109 10 37 20
67 22 67 2 0 15 -7 29 -17 24 -15 25 -15 31 5 5 22 58 46 76 35 5 -3 16 2 24
13 12 17 14 17 30 2 13 -14 14 -20 3 -32 -15 -18 -7 -20 38 -6 l33 9 -28 -27
c-27 -27 -50 -32 -37 -9 4 7 3 8 -2 4 -5 -5 -10 -13 -10 -18 -1 -5 -2 -14 -3
-19 -1 -7 -7 -7 -20 -1 -10 6 -33 9 -51 6 -24 -3 -30 0 -26 10 3 8 0 17 -6 21
-18 11 -26 -16 -15 -57 10 -41 34 -51 67 -28 12 8 9 9 -12 5 -16 -4 -28 -2
-28 4 0 5 6 10 13 11 6 0 3 4 -8 8 -13 5 -3 8 30 8 28 0 41 -2 31 -5 -14 -3
-16 -6 -6 -12 10 -6 8 -12 -9 -26 -25 -22 -27 -32 -5 -30 25 2 28 -21 5 -29
-13 -4 -18 -12 -14 -23 4 -11 0 -10 -11 5 -9 12 -13 28 -10 37 4 10 1 16 -9
16 -11 0 -17 -15 -22 -52 -8 -73 -5 -212 5 -216 5 -2 6 -10 3 -18 -3 -9 5 -18
23 -24 23 -9 25 -13 14 -20 -13 -8 -11 -17 12 -62 38 -75 66 -150 129 -338 29
-91 58 -168 64 -172 5 -4 15 -2 22 3 7 6 18 7 24 3 16 -10 -25 -26 -46 -18 -8
4 -15 2 -15 -2 1 -20 17 -31 45 -30 24 1 30 -3 31 -22 1 -15 -2 -19 -10 -13
-17 13 -66 22 -66 12 0 -5 5 -11 12 -13 16 -6 1 -28 -19 -28 -11 0 -14 7 -11
25 4 17 1 25 -8 25 -8 0 -14 5 -14 10 0 15 -47 12 -130 -10 -81 -21 -146 -26
-152 -10 -1 5 -17 12 -34 16 -30 6 -32 4 -38 -29 -7 -38 -37 -55 -57 -31 -12
14 -9 16 -74 -41 -18 -16 -40 -35 -48 -41 -8 -7 -26 -27 -41 -45 -17 -22 -24
-27 -20 -14 5 17 4 18 -8 5 -7 -8 -30 -16 -51 -16 -20 -1 -49 -9 -62 -18 -21
-14 -25 -24 -25 -68 0 -117 -41 -155 -163 -150 l-38 2 5 98 c3 53 9 151 13
217 9 155 5 234 -13 252 -24 24 -16 41 30 68 45 26 60 46 65 85 1 7 7 7 20 0
19 -10 51 -4 51 9 0 4 14 8 31 9 18 1 36 5 40 8 12 7 11 54 -1 54 -5 0 -10 9
-10 21 0 23 -10 23 -247 4 -29 -2 -55 0 -58 5 -11 18 -46 11 -80 -15 l-33 -26
-99 20 c-138 28 -320 96 -345 128 -7 10 -22 20 -33 21 -25 5 -94 42 -119 65
-11 9 -25 17 -30 17 -21 1 -89 118 -84 144 4 22 1 24 -24 24 -27 -1 -29 -4
-23 -27 21 -83 24 -148 8 -210 -8 -36 -23 -73 -32 -82 -9 -10 -22 -39 -29 -64
-6 -25 -16 -45 -22 -45 -5 0 -10 -7 -10 -16 0 -8 5 -12 10 -9 6 3 10 1 10 -4
0 -6 -4 -11 -10 -11 -5 0 -10 -8 -11 -17 0 -15 -2 -15 -9 2 -7 16 -9 14 -9
-14 -1 -19 -4 -31 -7 -28 -4 4 -18 -15 -31 -41 -13 -26 -30 -58 -37 -71 -24
-41 -1 -63 79 -76 48 -8 100 -59 109 -107 15 -74 27 -174 24 -202 l-3 -29
-128 -3 c-74 -2 -155 -10 -190 -19 -41 -10 -63 -12 -65 -5 -2 5 -9 10 -16 10
-8 0 -11 25 -11 82 0 45 -5 132 -12 193 -7 60 -12 148 -11 195 2 87 5 97 87
260 5 9 0 21 -15 32 -28 22 -44 23 -44 2 0 -12 -8 -15 -36 -11 -34 5 -60 17
-35 17 7 0 24 9 38 20 27 21 48 27 38 10 -3 -5 2 -10 11 -10 10 0 26 -8 36
-17 17 -15 20 -15 28 -3 15 23 12 43 -5 36 -8 -3 -15 -1 -15 4 0 6 4 10 9 10
17 0 63 48 57 59 -3 5 -24 7 -46 5 -21 -2 -41 0 -44 5 -7 11 71 24 86 15 6 -4
8 -2 4 4 -3 6 -2 13 4 17 5 3 10 1 10 -6 0 -22 14 1 26 42 10 34 10 39 -5 39
-18 1 -57 48 -47 58 4 3 16 0 28 -7 29 -18 59 -22 75 -10 18 16 5 31 -19 23
-18 -5 -19 -4 -7 9 8 8 20 12 27 10 7 -3 20 1 30 10 9 8 30 21 46 30 30 15 30
15 30 110 1 52 -2 93 -6 91 -3 -2 -13 -1 -22 2 -18 7 -21 88 -7 198 6 49 13
63 37 82 27 22 27 24 7 24 -12 0 -28 -7 -36 -15 -13 -12 -16 -12 -21 8 -19 70
6 166 48 185 29 13 33 8 41 -41z m-285 12 c0 -12 -35 -20 -54 -13 -13 5 -14 9
-6 14 16 10 60 10 60 -1z m-86 -15 c9 -22 8 -24 -9 -18 -8 4 -15 12 -15 20 0
19 16 18 24 -2z m86 -34 c0 -5 -7 -7 -15 -4 -8 4 -15 8 -15 10 0 2 7 4 15 4 8
0 15 -4 15 -10z m30 0 c0 -5 -2 -10 -4 -10 -3 0 -8 5 -11 10 -3 6 -1 10 4 10
6 0 11 -4 11 -10z m100 0 c0 -5 -4 -10 -10 -10 -5 0 -10 5 -10 10 0 6 5 10 10
10 6 0 10 -4 10 -10z m-30 -24 c0 -17 -7 -25 -25 -28 -14 -3 -25 -2 -25 3 0 4
-3 16 -6 26 -4 11 -3 14 3 7 12 -16 45 -14 39 3 -3 7 -1 13 4 13 6 0 10 -11
10 -24z m-153 -12 c-3 -3 -12 -4 -19 -1 -8 3 -5 6 6 6 11 1 17 -2 13 -5z m-27
-36 c0 -6 -7 -5 -15 2 -8 7 -15 17 -15 22 0 6 7 5 15 -2 8 -7 15 -17 15 -22z
m101 17 c-1 -15 -24 -12 -29 3 -3 9 2 13 12 10 10 -1 17 -7 17 -13z m115 -25
c-1 -38 -18 -55 -29 -27 -3 6 -6 2 -6 -10 -1 -20 -5 -22 -33 -16 -43 8 -45 11
-17 22 24 10 24 10 2 10 -38 1 -16 31 23 31 18 0 39 7 46 15 7 8 14 14 14 15
1 0 1 -18 0 -40z m-271 20 c-3 -5 -10 -10 -16 -10 -5 0 -9 5 -9 10 0 6 7 10
16 10 8 0 12 -4 9 -10z m138 -27 c-7 -2 -19 -2 -25 0 -7 3 -2 5 12 5 14 0 19
-2 13 -5z m7 -23 c0 -5 -4 -10 -10 -10 -5 0 -10 5 -10 10 0 6 5 10 10 10 6 0
10 -4 10 -10z m-180 -31 c0 -6 9 -9 20 -6 11 3 20 2 20 -3 0 -9 -59 -22 -71
-15 -12 8 1 35 17 35 8 0 14 -5 14 -11z m75 1 c3 -6 -1 -7 -9 -4 -18 7 -21 14
-7 14 6 0 13 -4 16 -10z m2773 -24 c-10 -9 -20 -11 -29 -5 -8 5 -22 6 -31 3
-10 -3 -18 -1 -18 5 0 8 77 20 89 14 2 -1 -3 -9 -11 -17z m-2690 -5 c27 -23
29 -35 3 -22 -10 6 -28 8 -40 6 -25 -5 -28 10 -3 24 9 6 17 11 18 11 1 0 11
-8 22 -19z m72 4 c0 -8 -4 -15 -10 -15 -5 0 -10 7 -10 15 0 8 5 15 10 15 6 0
10 -7 10 -15z m-10 -31 c0 -2 -7 -4 -15 -4 -8 0 -15 4 -15 10 0 5 7 7 15 4 8
-4 15 -8 15 -10z m95 6 c3 -5 2 -10 -4 -10 -5 0 -13 5 -16 10 -3 6 -2 10 4 10
5 0 13 -4 16 -10z m-45 -4 c0 -3 -4 -8 -10 -11 -5 -3 -10 -1 -10 4 0 6 5 11
10 11 6 0 10 -2 10 -4z m-266 -32 c9 -3 16 -15 16 -25 0 -12 7 -19 20 -19 11
0 20 -4 20 -10 0 -5 -5 -10 -11 -10 -6 0 -9 -9 -6 -20 3 -11 1 -22 -3 -25 -5
-3 -11 8 -15 25 -4 16 -11 30 -16 30 -6 0 -7 -4 -4 -10 4 -7 -3 -7 -20 0 -15
6 -30 8 -35 5 -5 -3 -11 -1 -15 5 -4 6 7 10 25 10 29 0 32 2 26 25 -7 27 -6
28 18 19z m294 -1 c-14 -3 -16 -9 -8 -23 13 -25 -2 -33 -26 -15 -16 12 -17 16
-5 24 11 7 10 10 -5 14 -10 2 -1 5 21 5 22 0 32 -2 23 -5z m-71 -20 c3 -9 -9
-12 -43 -10 -62 3 -68 22 -7 22 27 0 48 -5 50 -12z m21 -39 c-9 -9 -21 -13
-28 -9 -14 9 5 25 30 25 12 0 12 -3 -2 -16z m2460 -15 c-13 -8 -49 11 -42 22
2 4 15 2 28 -4 15 -7 20 -14 14 -18z m137 -7 c-8 -2 -17 -12 -20 -23 -5 -14
-15 -19 -43 -19 l-37 1 28 15 c15 8 27 23 27 33 0 28 10 32 35 13 16 -12 19
-18 10 -20z m-2665 0 c0 -13 -52 -72 -59 -67 -11 6 -11 55 0 55 5 0 9 5 9 10
0 17 -42 11 -56 -7 -12 -16 -13 -16 -7 4 3 14 14 23 32 25 27 4 81 -10 81 -20z
m85 6 c-6 -16 4 -29 29 -44 26 -14 41 -64 19 -64 -9 0 -26 12 -39 26 -13 14
-28 22 -34 19 -16 -10 -50 14 -50 37 0 19 1 20 25 4 31 -20 37 -20 34 2 -2 25
0 32 11 32 5 0 7 -6 5 -12z m-325 -18 c0 -5 -5 -10 -11 -10 -5 0 -7 5 -4 10 3
6 8 10 11 10 2 0 4 -4 4 -10z m80 -10 c0 -5 -4 -10 -10 -10 -5 0 -10 5 -10 10
0 6 5 10 10 10 6 0 10 -4 10 -10z m2635 -22 c6 -4 -5 -12 -22 -19 -18 -6 -33
-15 -33 -20 0 -9 47 8 65 23 17 15 25 8 19 -17 -6 -24 -5 -25 21 -15 24 9 26
8 16 -4 -15 -17 -51 -28 -51 -14 0 6 -9 8 -20 5 -11 -3 -18 -1 -14 4 3 5 -2 9
-10 9 -9 0 -16 -7 -16 -15 0 -8 -5 -15 -11 -15 -5 0 -8 4 -5 9 3 5 -8 14 -25
20 -38 13 -33 36 9 36 16 0 28 3 26 7 -6 9 29 28 36 20 3 -4 10 -10 15 -14z
m220 -8 c-23 -25 -35 -26 -28 -1 3 11 12 22 22 24 24 5 26 -1 6 -23z m-2775
10 c0 -5 -8 -10 -17 -10 -15 0 -16 2 -3 10 19 12 20 12 20 0z m119 -40 c34
-14 43 -35 11 -25 -14 4 -20 2 -20 -9 0 -13 -4 -14 -25 -4 -26 12 -33 28 -12
28 7 0 4 7 -7 15 -11 8 -14 15 -8 15 7 0 11 3 11 8 -3 20 3 24 11 6 4 -11 22
-27 39 -34z m-339 8 c0 -4 -6 -8 -14 -8 -8 0 -17 4 -20 8 -2 4 4 8 15 8 10 0
19 -4 19 -8z m3120 -4 c0 -2 -7 -4 -15 -4 -8 0 -15 4 -15 10 0 5 7 7 15 4 8
-4 15 -8 15 -10z m-3007 -9 c-3 -9 -8 -14 -10 -11 -3 3 -2 9 2 15 9 16 15 13
8 -4z m71 3 c-5 -8 -1 -9 12 -4 15 6 16 4 7 -5 -14 -14 -47 -4 -38 11 3 5 11
10 16 10 6 0 7 -5 3 -12z m69 -5 c-7 -2 -19 -2 -25 0 -7 3 -2 5 12 5 14 0 19
-2 13 -5z m2682 -3 c-3 -5 -14 -10 -23 -9 -14 0 -13 2 3 9 27 11 27 11 20 0z
m-520 -10 c-3 -5 -13 -10 -21 -10 -8 0 -14 5 -14 10 0 6 9 10 21 10 11 0 17
-4 14 -10z m263 -8 c2 -7 -3 -12 -12 -12 -8 0 -19 -7 -24 -16 -8 -14 -10 -14
-22 1 -11 13 -10 15 2 10 10 -4 17 1 21 15 6 23 28 23 35 2z m219 -8 c-3 -3
-12 -4 -19 -1 -8 3 -5 6 6 6 11 1 17 -2 13 -5z m-2601 -37 c13 -15 24 -37 24
-48 0 -19 11 -25 23 -13 4 4 23 7 42 8 31 1 33 -1 18 -11 -9 -7 -24 -14 -32
-14 -9 -1 -28 -3 -42 -4 -16 -2 -35 4 -46 14 -11 11 -35 18 -59 18 -64 1 -66
1 -59 23 4 11 2 20 -4 20 -6 0 -11 -6 -12 -12 0 -10 -2 -10 -6 0 -2 6 -9 12
-14 12 -6 0 -7 -5 -4 -10 4 -6 -6 -5 -20 2 -26 12 -26 13 -8 28 14 11 42 15
97 15 73 0 79 -2 102 -28z m2124 23 c0 -5 -9 -10 -20 -10 -11 0 -20 5 -20 10
0 6 9 10 20 10 11 0 20 -4 20 -10z m-2409 -18 c-7 -2 -18 1 -23 6 -8 8 -4 9
13 5 13 -4 18 -8 10 -11z m2939 0 c0 -5 -7 -9 -15 -9 -8 0 -15 4 -15 9 0 4 7
8 15 8 8 0 15 -4 15 -8z m-520 -14 c0 -3 -13 -6 -30 -6 -16 1 -27 5 -24 9 6
10 54 8 54 -3z m175 2 c3 -5 -1 -10 -9 -10 -9 0 -16 5 -16 10 0 6 4 10 9 10 6
0 13 -4 16 -10z m145 -5 c-7 -9 -15 -13 -19 -10 -3 3 1 10 9 15 21 14 24 12
10 -5z m153 8 c-7 -2 -19 -2 -25 0 -7 3 -2 5 12 5 14 0 19 -2 13 -5z m118 -16
c-13 -13 -26 -3 -16 12 3 6 11 8 17 5 6 -4 6 -10 -1 -17z m-2661 -3 c0 -8 -4
-12 -10 -9 -5 3 -10 10 -10 16 0 5 5 9 10 9 6 0 10 -7 10 -16z m2270 -9 c0
-19 -24 -30 -41 -19 -9 5 -7 11 6 21 24 17 35 17 35 -2z m60 6 c0 -5 -7 -12
-16 -15 -8 -3 -13 -2 -9 3 3 5 -1 12 -7 14 -7 3 -3 6 10 6 12 1 22 -3 22 -8z
m-275 -11 c3 -5 -3 -10 -15 -10 -12 0 -18 5 -15 10 3 6 10 10 15 10 5 0 12 -4
15 -10z m85 2 c0 -5 -7 -9 -15 -9 -8 0 -15 4 -15 9 0 4 7 8 15 8 8 0 15 -4 15
-8z m235 -12 c-3 -5 -11 -10 -16 -10 -6 0 -7 5 -4 10 3 6 11 10 16 10 6 0 7
-4 4 -10z m105 0 c0 -5 -5 -10 -11 -10 -5 0 -7 5 -4 10 3 6 8 10 11 10 2 0 4
-4 4 -10z m-380 -35 c0 -21 -3 -24 -18 -16 -9 5 -31 7 -47 5 l-30 -5 28 16
c16 9 35 14 43 11 9 -3 12 -1 9 4 -3 6 -1 10 4 10 6 0 11 -11 11 -25z m450 21
c0 -2 -7 -7 -16 -10 -8 -3 -12 -2 -9 4 6 10 25 14 25 6z m-2481 -27 c-22 -14
-33 -10 -19 6 7 8 17 12 22 9 6 -4 5 -10 -3 -15z m2106 -4 c18 -13 35 -22 38
-19 10 10 48 -7 44 -19 -2 -7 3 -18 12 -25 14 -12 14 -13 -2 -8 -10 3 -29 6
-43 6 -17 0 -22 4 -17 16 4 10 -1 17 -16 21 -11 3 -21 9 -21 14 0 5 -6 9 -14
9 -7 0 -19 7 -26 15 -21 25 8 19 45 -10z m425 16 c0 -5 -9 -7 -20 -4 -11 3
-20 7 -20 9 0 2 9 4 20 4 11 0 20 -4 20 -9z m-280 -11 c0 -5 -6 -10 -14 -10
-8 0 -18 5 -21 10 -3 6 3 10 14 10 12 0 21 -4 21 -10z m180 -10 c0 -5 -12 -10
-27 -10 -22 0 -25 2 -13 10 20 13 40 13 40 0z m-2556 -22 c-7 -11 -64 -10 -64
1 0 5 15 8 34 8 19 -1 32 -5 30 -9z m116 2 c0 -5 -4 -10 -10 -10 -5 0 -10 -7
-10 -15 0 -8 -4 -15 -10 -15 -13 0 -13 6 2 30 14 21 28 26 28 10z m1914 1 c19
-7 18 -8 -5 -15 -22 -7 -22 -9 -4 -13 27 -7 46 -23 39 -34 -8 -14 -24 -10 -18
4 3 10 -5 13 -31 11 -38 -3 -50 18 -18 30 15 6 15 8 3 16 -13 9 -13 10 0 9 8
0 24 -4 34 -8z m423 3 c-3 -3 -12 -4 -19 -1 -8 3 -5 6 6 6 11 1 17 -2 13 -5z
m23 -24 c8 -5 11 -10 5 -10 -5 0 -17 5 -25 10 -8 5 -10 10 -5 10 6 0 17 -5 25
-10z m-270 -11 c0 -5 -7 -9 -16 -9 -13 0 -14 -3 -4 -15 7 -8 17 -12 23 -8 6 3
7 1 3 -5 -12 -19 -43 -14 -49 8 -3 14 -14 20 -34 21 -28 1 -28 1 -3 8 37 11
80 11 80 0z m35 1 c3 -5 -1 -10 -9 -10 -9 0 -16 5 -16 10 0 6 4 10 9 10 6 0
13 -4 16 -10z m545 6 c0 -3 -4 -8 -10 -11 -5 -3 -10 -1 -10 4 0 6 5 11 10 11
6 0 10 -2 10 -4z m-2650 -16 c0 -5 -8 -10 -17 -10 -15 0 -16 2 -3 10 19 12 20
12 20 0z m2263 3 c-7 -2 -13 -11 -13 -19 0 -18 -26 -18 -33 0 -4 10 2 16 16
19 31 6 44 6 30 0z m-2543 -13 c0 -5 -2 -10 -4 -10 -3 0 -8 5 -11 10 -3 6 -1
10 4 10 6 0 11 -4 11 -10z m2395 -9 c3 -5 1 -12 -5 -16 -5 -3 -10 1 -10 9 0
18 6 21 15 7z m282 -13 c-3 -8 -6 -5 -6 6 -1 11 2 17 5 13 3 -3 4 -12 1 -19z
m-2550 3 c26 -1 31 -4 26 -18 -4 -10 -15 -24 -25 -31 -10 -7 -16 -18 -13 -23
8 -11 -19 -39 -37 -39 -7 0 -14 12 -15 26 0 15 -7 30 -15 35 -7 5 -9 9 -4 9 5
0 3 7 -4 15 -17 20 -4 34 28 31 15 -2 41 -4 59 -5z m2523 5 c0 -3 -4 -8 -10
-11 -5 -3 -10 -1 -10 4 0 6 5 11 10 11 6 0 10 -2 10 -4z m-30 -10 c0 -3 -4 -8
-10 -11 -5 -3 -10 -1 -10 4 0 6 5 11 10 11 6 0 10 -2 10 -4z m-347 -30 c3 3 3
-3 0 -14 -2 -11 -13 -22 -23 -25 -12 -3 -17 0 -14 8 6 14 -54 29 -79 20 -8 -4
-18 -2 -22 4 -6 11 0 12 63 14 17 1 32 5 32 11 0 5 8 2 18 -7 10 -10 21 -14
25 -11z m-2390 7 c-7 -2 -21 -2 -30 0 -10 3 -4 5 12 5 17 0 24 -2 18 -5z m82
-3 c3 -5 1 -10 -4 -10 -6 0 -11 5 -11 10 0 6 2 10 4 10 3 0 8 -4 11 -10z
m2352 4 c-3 -3 -12 -4 -19 -1 -8 3 -5 6 6 6 11 1 17 -2 13 -5z m248 -4 c-3 -5
-15 -10 -26 -10 -10 0 -19 5 -19 10 0 6 12 10 26 10 14 0 23 -4 19 -10z m116
-7 c12 3 22 0 26 -9 8 -22 -3 -27 -29 -13 -12 7 -35 12 -50 11 -15 -1 -30 3
-34 9 -4 7 -3 9 2 6 6 -3 16 -2 24 3 9 5 19 5 27 -2 7 -6 22 -8 34 -5z m-241
-9 c0 -2 -7 -4 -15 -4 -8 0 -15 4 -15 10 0 5 7 7 15 4 8 -4 15 -8 15 -10z
m-60 -4 c0 -5 -2 -10 -4 -10 -3 0 -8 5 -11 10 -3 6 -1 10 4 10 6 0 11 -4 11
-10z m-2372 -12 c-3 -7 -15 -15 -28 -16 -21 -3 -22 -2 -11 12 16 19 44 21 39
4z m2609 -5 c-4 -3 -2 -12 3 -18 8 -10 1 -14 -30 -17 -49 -4 -63 8 -20 17 16
4 30 11 30 16 0 5 5 9 12 9 6 0 8 -3 5 -7z m100 -49 c-9 -9 -28 6 -21 18 4 6
10 6 17 -1 6 -6 8 -13 4 -17z m-217 -3 c0 -5 -9 -11 -19 -14 -14 -3 -18 -1
-14 9 6 15 33 19 33 5z m177 3 c-3 -3 -12 -4 -19 -1 -8 3 -5 6 6 6 11 1 17 -2
13 -5z m-2627 -14 c0 -5 -4 -10 -10 -10 -5 0 -10 5 -10 10 0 6 5 10 10 10 6 0
10 -4 10 -10z m2325 0 c-3 -5 -11 -10 -16 -10 -6 0 -7 5 -4 10 3 6 11 10 16
10 6 0 7 -4 4 -10z m52 -7 c-9 -9 -19 -14 -23 -11 -10 10 6 28 24 28 15 0 15
-1 -1 -17z m-2427 -43 c0 -5 -5 -10 -11 -10 -5 0 -7 5 -4 10 3 6 8 10 11 10 2
0 4 -4 4 -10z m4190 -21 c56 -32 119 -118 125 -174 l5 -40 -13 37 c-57 169
-276 216 -455 97 -30 -20 -40 -23 -33 -11 18 30 59 63 118 94 53 27 65 29 133
26 56 -3 86 -11 120 -29z m-4260 -27 c0 -13 -12 -22 -22 -16 -10 6 -1 24 13
24 5 0 9 -4 9 -8z m2747 2 c-3 -3 -12 -4 -19 -1 -8 3 -5 6 6 6 11 1 17 -2 13
-5z m-2572 -14 c3 -6 -1 -7 -9 -4 -18 7 -21 14 -7 14 6 0 13 -4 16 -10z m-155
-10 c0 -5 -5 -10 -11 -10 -5 0 -7 5 -4 10 3 6 8 10 11 10 2 0 4 -4 4 -10z
m2314 -25 c-4 -8 -14 -15 -23 -15 -14 1 -13 3 3 15 25 19 27 19 20 0z m-2292
-9 c6 4 8 2 5 -4 -4 -5 -16 -8 -27 -5 -11 3 -20 0 -20 -6 0 -6 -4 -11 -10 -11
-5 0 -10 4 -10 8 0 13 44 31 48 21 2 -5 9 -6 14 -3z m-77 -6 c3 -5 -1 -10 -10
-10 -9 0 -13 5 -10 10 3 6 8 10 10 10 2 0 7 -4 10 -10z m2367 -56 c-7 -12 -9
-8 -10 18 -1 26 1 30 9 16 6 -11 6 -24 1 -34z m124 31 c17 -16 14 -18 -10 -9
-9 3 -16 10 -16 15 0 13 9 11 26 -6z m-19 -90 c-3 -7 -18 -15 -34 -17 -22 -2
-28 -8 -26 -25 2 -13 -2 -23 -7 -23 -6 0 -10 10 -10 22 0 12 -7 30 -16 40 -16
16 -15 18 7 27 13 5 29 6 34 3 6 -4 2 -8 -7 -10 -10 -2 -18 -10 -18 -19 0 -10
6 -13 16 -9 9 3 21 6 28 6 9 0 11 9 8 27 -5 26 -4 27 12 10 10 -10 16 -24 13
-32z m-2302 -5 c-3 -5 -10 -10 -16 -10 -5 0 -9 5 -9 10 0 6 7 10 16 10 8 0 12
-4 9 -10z m4252 -32 c-3 -8 -6 -5 -6 6 -1 11 2 17 5 13 3 -3 4 -12 1 -19z
m-1947 0 c0 -4 -6 -8 -14 -8 -8 0 -17 4 -20 8 -2 4 4 8 15 8 10 0 19 -4 19 -8z
m260 -28 c13 -9 13 -11 0 -20 -19 -13 -40 -13 -40 0 0 5 7 7 15 4 8 -4 15 -2
15 4 0 6 -6 13 -12 15 -7 3 -8 6 -3 6 6 0 17 -4 25 -9z m-2732 -34 c-1 -23 -5
-33 -14 -29 -7 2 -11 11 -8 19 2 8 6 21 9 29 8 26 14 16 13 -19z m84 15 c4 -4
-5 -6 -20 -5 -46 2 -52 4 -52 15 0 11 58 3 72 -10z m648 -17 c0 -19 -21 -29
-30 -14 -4 7 -5 21 -3 31 4 15 8 17 19 8 8 -6 14 -17 14 -25z m2310 21 c7 -9
10 -18 7 -21 -10 -11 -37 5 -37 21 0 19 14 19 30 0z m-135 -5 c-3 -5 -12 -10
-18 -10 -7 0 -6 4 3 10 19 12 23 12 15 0z m-389 -17 c-14 -13 -20 -15 -23 -5
-3 6 -10 9 -15 6 -7 -4 -8 -2 -4 4 4 7 19 12 34 12 25 0 26 -1 8 -17z m261
-15 c-3 -8 -6 -5 -6 6 -1 11 2 17 5 13 3 -3 4 -12 1 -19z m343 12 c0 -5 -4
-10 -10 -10 -5 0 -10 5 -10 10 0 6 5 10 10 10 6 0 10 -4 10 -10z m-115 -10 c3
-5 1 -10 -4 -10 -6 0 -11 5 -11 10 0 6 2 10 4 10 3 0 8 -4 11 -10z m-258 -6
c-3 -3 -12 -4 -19 -1 -8 3 -5 6 6 6 11 1 17 -2 13 -5z m163 -14 c8 -5 12 -12
8 -15 -9 -9 -48 4 -48 16 0 12 21 11 40 -1z m-466 -39 c-6 -6 -24 19 -24 34 1
6 7 1 15 -9 8 -11 12 -22 9 -25z m156 29 c0 -5 -7 -10 -16 -10 -8 0 -12 5 -9
10 3 6 10 10 16 10 5 0 9 -4 9 -10z m-125 -10 c3 -5 12 -10 20 -10 8 0 26 -5
41 -10 22 -9 25 -13 14 -23 -10 -9 -13 -9 -17 1 -3 6 -18 12 -34 12 -18 0 -29
5 -29 14 0 8 -6 17 -12 19 -10 4 -10 6 -1 6 6 1 15 -3 18 -9z m172 -15 c-4 -8
-11 -15 -17 -15 -14 0 -13 27 3 33 16 6 21 1 14 -18z m1337 -57 c32 -17 59
-21 126 -21 83 0 84 -1 45 -13 -54 -17 -72 -17 -136 2 -52 16 -129 78 -129
105 0 6 12 -4 26 -21 15 -17 45 -40 68 -52z m-1278 5 c3 -20 -14 -15 -26 7
-14 27 -1 50 13 24 6 -11 12 -25 13 -31z m-49 23 c-3 -7 0 -19 6 -25 8 -8 7
-11 -5 -11 -24 0 -31 17 -16 34 16 19 22 20 15 2z m-37 -6 c0 -5 -5 -10 -11
-10 -5 0 -7 5 -4 10 3 6 8 10 11 10 2 0 4 -4 4 -10z m-32 -12 c-6 -18 -28 -21
-28 -4 0 9 7 16 16 16 9 0 14 -5 12 -12z m-121 -20 c-3 -8 -6 -5 -6 6 -1 11 2
17 5 13 3 -3 4 -12 1 -19z m441 4 c2 -7 -7 -12 -23 -12 -24 0 -26 2 -15 15 14
17 31 16 38 -3z m-350 -27 c-3 -3 -9 2 -12 12 -6 14 -5 15 5 6 7 -7 10 -15 7
-18z m137 -26 c9 -13 -21 -23 -42 -13 -10 4 -25 6 -33 5 -11 -2 -9 2 4 12 10
8 16 19 12 25 -3 6 7 4 24 -4 16 -9 32 -20 35 -25z m115 17 c0 -3 -4 -8 -10
-11 -5 -3 -10 -1 -10 4 0 6 5 11 10 11 6 0 10 -2 10 -4z m-2710 -20 c0 -2 -7
-7 -16 -10 -8 -3 -12 -2 -9 4 6 10 25 14 25 6z m2460 -16 c0 -5 7 -10 15 -10
8 0 15 -7 15 -15 0 -8 -6 -15 -14 -15 -8 0 -16 -6 -19 -12 -2 -7 -6 4 -8 25
-3 20 -1 37 3 37 4 0 8 -4 8 -10z m548 -9 c10 -6 8 -10 -8 -14 -30 -8 -57 2
-38 14 17 11 29 11 46 0z m-463 -11 c3 -5 2 -10 -4 -10 -5 0 -13 5 -16 10 -3
6 -2 10 4 10 5 0 13 -4 16 -10z m541 -15 l29 -15 -27 0 c-40 0 -63 11 -46 21
16 11 11 11 44 -6z m-3181 -35 c3 -5 -1 -10 -10 -10 -9 0 -13 5 -10 10 3 6 8
10 10 10 2 0 7 -4 10 -10z m2975 0 c3 -1 8 -2 13 -1 4 0 7 -5 7 -12 0 -8 -16
-22 -35 -33 -19 -10 -38 -26 -41 -36 -3 -10 -12 -15 -22 -12 -9 3 -6 -1 7 -9
14 -8 31 -13 38 -10 7 3 13 0 13 -5 0 -6 8 -13 18 -15 13 -4 11 -5 -5 -6 -13
0 -23 -6 -23 -11 0 -13 52 -1 62 14 4 6 -2 14 -14 19 -16 5 -18 11 -10 19 6 6
18 7 29 3 25 -12 93 -15 93 -5 0 5 -19 10 -42 12 -42 3 -42 3 -19 17 49 28
166 3 145 -31 -3 -5 -11 -2 -18 8 -17 23 -52 10 -60 -23 -8 -30 -6 -34 23 -36
19 -1 23 -5 20 -23 0 -4 5 -11 13 -15 9 -6 9 -9 1 -9 -6 0 -15 5 -18 10 -3 6
-15 10 -26 10 -10 0 -19 6 -19 14 0 7 -11 16 -25 18 -14 3 -25 1 -25 -4 0 -6
-7 -8 -15 -5 -8 4 -17 2 -20 -3 -4 -6 1 -10 9 -10 9 0 16 -7 16 -15 0 -7 8
-19 18 -24 9 -6 12 -11 6 -11 -6 0 -17 6 -24 14 -13 16 -39 10 -56 -13 -10
-13 -13 -12 -23 7 -13 25 -36 30 -27 7 7 -19 -8 -19 -27 0 -8 8 -17 11 -21 8
-3 -4 -6 -1 -6 5 0 13 -59 17 -61 5 -1 -5 -2 -23 -4 -41 -2 -28 -1 -31 13 -20
13 11 14 10 10 -2 -3 -8 -15 -15 -27 -14 -11 0 -21 -4 -21 -10 0 -7 -3 -7 -8
1 -4 6 -19 14 -32 16 -78 13 -122 50 -80 69 13 6 13 7 0 7 -27 1 -45 -16 -33
-31 6 -7 13 -26 17 -41 4 -16 11 -25 17 -21 6 4 15 0 20 -7 7 -11 9 -10 9 4 0
19 11 22 26 7 6 -6 26 -12 45 -14 41 -3 50 -20 14 -24 -15 -2 -25 2 -25 9 0 7
-6 4 -14 -7 -17 -23 -12 -29 32 -37 33 -7 46 8 15 16 -10 2 3 7 29 11 32 6 45
12 41 20 -7 11 27 -13 38 -27 3 -4 19 -1 35 8 17 9 40 13 56 9 23 -5 27 -3 22
11 -5 12 -14 15 -32 10 -18 -4 -30 0 -45 16 -15 16 -22 18 -25 10 -3 -8 -7 -9
-11 -5 -3 5 -19 16 -35 24 -30 16 -36 32 -15 39 7 2 9 -1 4 -9 -6 -10 -4 -12
7 -7 9 3 24 -1 35 -8 26 -21 89 -19 103 3 8 12 13 13 16 5 3 -7 13 -13 21 -13
8 0 13 -6 10 -13 -3 -8 4 -12 21 -11 14 0 28 6 30 13 4 11 6 10 13 0 6 -9 9
-10 9 -2 0 6 -4 15 -10 18 -19 12 -10 22 15 17 30 -5 34 -37 6 -52 -11 -5 -40
-10 -65 -10 -48 0 -56 -10 -33 -42 9 -11 22 -14 40 -11 25 5 26 6 10 19 -16
12 -10 13 44 14 34 0 65 -5 68 -10 4 -6 10 -8 14 -6 4 3 12 -4 19 -15 7 -12 8
-19 2 -19 -6 0 -6 -7 2 -19 6 -10 19 -17 27 -16 9 2 24 4 34 4 11 1 22 13 29
32 9 27 23 32 23 8 0 -5 3 -9 8 -9 41 0 42 1 20 17 -26 17 -31 53 -8 53 8 0
15 5 15 10 0 6 -4 10 -9 10 -6 0 -9 12 -8 28 3 38 40 42 73 7 29 -31 29 -31 5
-31 -10 0 -17 5 -14 11 2 7 -3 12 -11 12 -18 0 -29 -24 -15 -32 5 -4 18 -4 29
0 14 5 25 -2 42 -29 13 -20 28 -34 34 -32 15 6 56 -32 49 -45 -4 -5 -11 -7
-16 -4 -5 4 -9 0 -9 -8 0 -10 7 -13 20 -10 11 3 20 10 20 15 0 5 5 6 10 3 6
-3 10 1 10 10 0 9 -5 13 -11 9 -7 -4 -10 -1 -7 7 6 17 48 25 48 9 0 -6 6 -10
13 -9 27 3 48 -2 42 -10 -3 -5 0 -13 6 -17 6 -3 15 0 20 7 6 10 9 11 9 2 0 -7
10 -13 21 -13 18 0 19 2 9 15 -15 18 -12 18 29 4 20 -7 31 -18 31 -30 0 -11 7
-19 17 -19 13 0 14 3 5 12 -7 7 -12 16 -12 22 0 5 3 7 6 3 4 -3 19 0 33 8 26
13 27 12 29 -13 1 -14 11 -35 22 -47 11 -12 17 -25 13 -28 -3 -4 3 -7 15 -7
11 0 24 5 27 11 5 7 11 5 18 -5 7 -8 25 -16 42 -18 20 -2 31 -9 34 -23 l3 -20
-23 20 c-18 16 -21 17 -16 3 7 -21 -22 -29 -78 -21 -34 4 -43 2 -49 -12 -5
-13 -3 -15 6 -8 7 5 27 6 43 2 28 -6 29 -7 5 -9 -18 -2 -20 -4 -7 -7 9 -2 17
-9 17 -14 0 -5 5 -9 11 -9 5 0 8 4 4 9 -3 5 -1 12 5 16 6 3 10 -3 10 -15 0
-16 -6 -21 -22 -20 -40 4 -41 1 -15 -26 20 -20 33 -25 52 -20 14 4 25 4 25 2
0 -2 3 -11 6 -19 4 -12 0 -14 -18 -11 -13 2 -17 2 -10 -2 6 -3 12 -13 12 -22
0 -12 3 -13 12 -4 7 7 19 12 28 11 11 0 10 -3 -5 -10 -15 -7 -8 -8 24 -4 37 5
42 3 37 -10 -5 -13 -1 -15 17 -10 17 6 19 5 10 -5 -13 -14 -103 -5 -103 10 0
4 -11 3 -24 -3 -13 -7 -22 -15 -20 -19 3 -5 -4 -8 -15 -8 -27 0 -27 -16 -1
-23 11 -3 20 -1 20 4 0 15 17 10 24 -6 4 -12 -3 -15 -34 -13 -21 1 -39 4 -38
7 2 18 -3 31 -13 31 -5 0 -7 -4 -4 -10 3 -5 2 -10 -4 -10 -5 0 -11 -7 -13 -16
-3 -13 -5 -13 -23 0 -16 12 -18 17 -7 27 6 7 12 18 12 23 0 6 -8 -2 -19 -17
-16 -25 -19 -26 -25 -11 -4 10 -4 15 0 11 9 -9 32 34 26 51 -7 20 -19 14 -26
-13 -6 -24 -26 -35 -26 -14 0 5 -5 7 -12 3 -7 -4 -8 -3 -4 5 4 6 12 9 17 6 15
-10 10 12 -6 29 -13 13 -11 14 22 11 21 -3 47 -7 58 -9 11 -2 28 -5 38 -5 9
-1 17 -8 17 -16 0 -11 -5 -12 -25 -5 -33 13 -32 -4 1 -19 31 -14 30 -15 38 25
6 26 2 36 -23 62 -17 17 -31 34 -31 39 -1 12 -50 46 -50 33 0 -5 -5 -10 -11
-10 -5 0 -7 4 -4 10 3 6 -1 7 -9 4 -10 -4 -16 -1 -16 10 0 8 -6 13 -12 11 -19
-7 -79 33 -85 55 -4 17 -11 19 -43 14 -23 -4 -40 -2 -44 5 -11 18 -34 13 -32
-6 2 -10 8 -18 14 -18 6 0 14 -3 18 -7 4 -5 17 -8 28 -9 21 0 21 0 0 -11 -18
-8 -28 -6 -52 12 -38 28 -92 21 -92 -13 -1 -21 -1 -21 -15 -4 -16 22 -9 48 11
40 8 -3 14 0 14 6 0 16 -25 13 -40 -4 -7 -8 -18 -15 -26 -15 -7 0 -16 -5 -20
-11 -4 -7 0 -9 13 -5 15 5 23 0 32 -20 6 -15 15 -24 18 -20 11 11 41 -48 31
-61 -7 -9 4 -11 44 -7 56 4 122 -16 145 -46 10 -12 12 -9 10 20 -2 41 -19 62
-42 54 -10 -4 -22 1 -30 12 -14 18 -15 18 -21 -3 -6 -23 -42 -28 -56 -8 -5 6
-8 4 -8 -4 0 -11 -5 -9 -21 5 l-21 19 24 6 23 6 -27 11 c-28 12 -36 26 -19 37
6 3 15 -4 21 -15 9 -16 21 -20 65 -20 42 0 55 -3 55 -15 0 -8 5 -15 10 -15 6
0 10 4 10 9 0 6 -4 13 -10 16 -13 8 -13 25 0 25 14 0 72 -89 65 -101 -4 -6 2
-13 13 -16 13 -3 19 -12 18 -27 -1 -16 -6 -21 -17 -19 -10 3 -18 -3 -21 -15
-4 -14 -2 -19 7 -16 7 3 16 0 21 -7 5 -8 3 -10 -6 -4 -8 5 -11 3 -8 -6 3 -8
16 -14 29 -14 13 0 24 -4 24 -10 0 -5 -6 -9 -12 -9 -7 1 -3 -9 10 -22 12 -13
30 -24 40 -24 9 0 17 -4 17 -10 0 -5 -4 -10 -10 -10 -5 0 0 -11 12 -25 15 -18
28 -23 42 -19 27 8 29 11 21 24 -5 8 -10 7 -18 -3 -10 -13 -15 -13 -31 4 -19
19 -19 19 5 20 13 0 18 3 12 6 -17 6 -17 23 0 23 16 0 49 -35 67 -69 11 -21
10 -23 -5 -17 -14 5 -16 2 -10 -11 14 -35 17 -53 8 -53 -10 0 -43 24 -74 52
-24 23 -40 23 -32 1 4 -10 9 -20 13 -23 3 -3 11 -16 18 -30 7 -14 10 -17 7 -7
-4 14 0 18 13 15 10 -2 18 -14 20 -31 3 -22 6 -26 16 -18 14 12 56 -17 56 -38
0 -8 -6 -7 -16 3 -8 9 -20 13 -25 10 -6 -3 -18 1 -27 8 -37 32 -44 32 -39 0 3
-16 10 -39 16 -51 16 -28 1 -26 -28 4 -15 17 -34 25 -55 25 -26 -1 -28 -2 -13
-11 9 -5 17 -18 17 -27 0 -10 5 -23 12 -30 9 -9 9 -12 0 -12 -7 0 -12 4 -12 9
0 6 -13 17 -29 27 -20 12 -27 23 -24 35 7 26 -4 24 -23 -6 -15 -24 -15 -26 4
-42 35 -31 37 -120 3 -98 -9 5 -9 11 1 22 10 12 9 17 -5 25 -10 5 -15 13 -12
19 4 5 2 9 -4 9 -5 0 -12 -6 -15 -12 -5 -10 -7 -10 -12 0 -6 13 -32 16 -58 6
-9 -3 -13 -11 -10 -18 3 -6 -2 -2 -10 8 -9 11 -16 25 -16 31 0 7 -9 20 -20 30
-26 24 -25 39 3 53 20 10 19 11 -13 9 -32 -2 -35 1 -38 28 -2 17 -8 35 -14 40
-8 7 -9 6 -3 -3 5 -10 2 -13 -10 -10 -27 5 -29 25 -3 32 16 4 19 9 11 14 -7 4
-9 13 -4 21 6 9 11 10 15 2 15 -23 24 -10 13 19 -9 23 -13 26 -19 15 -5 -8
-15 -12 -23 -9 -22 9 -18 21 7 27 l21 6 -24 20 c-13 11 -18 20 -11 21 16 0 55
-22 65 -37 4 -7 15 -13 22 -13 20 0 19 39 0 46 -10 4 -13 13 -9 26 4 13 -1 26
-16 40 -14 13 -21 15 -19 7 1 -8 1 -24 0 -36 -1 -19 -4 -21 -31 -13 -27 8 -30
6 -31 -13 -1 -12 -1 -25 0 -29 0 -5 -3 -8 -9 -8 -11 0 -34 40 -23 40 4 0 -3 9
-17 20 -19 15 -21 20 -8 20 9 0 18 -6 21 -12 3 -10 10 -8 23 5 17 16 17 17 2
11 -10 -3 -18 -3 -18 0 0 4 12 11 26 16 14 6 23 14 20 19 -4 5 3 7 14 4 16 -4
19 -2 14 11 -4 10 -18 16 -35 16 -18 0 -32 6 -36 16 -3 8 -12 13 -20 9 -12 -4
-14 0 -9 19 3 14 2 28 -4 31 -6 4 -10 -12 -11 -42 0 -26 -3 -42 -6 -35 -2 6
-11 12 -19 12 -17 0 -19 26 -1 33 6 3 8 6 2 6 -5 0 -21 -9 -35 -20 -14 -11
-19 -18 -12 -14 6 3 17 3 22 0 12 -7 -5 -45 -21 -45 -6 0 -7 5 -3 11 7 12 -13
29 -35 29 -11 0 -9 -4 5 -14 20 -15 14 -33 -7 -20 -21 13 -59 11 -59 -3 0 -7
-7 -13 -16 -13 -8 0 -13 -4 -9 -9 10 -17 -12 -21 -31 -5 -10 9 -14 13 -7 10 6
-4 14 -2 18 4 3 6 -4 10 -18 10 -13 0 -36 9 -50 20 -14 11 -27 20 -29 20 -11
0 6 -67 20 -77 26 -21 39 -14 15 6 -28 24 -30 41 -3 34 11 -3 18 -8 15 -12 -4
-8 20 -31 51 -49 18 -11 18 -11 1 -12 -10 0 -15 -5 -12 -11 4 -6 13 -8 21 -5
8 3 11 0 8 -8 -7 -19 -62 -26 -68 -9 -3 7 -15 13 -27 13 -15 0 -19 -5 -15 -15
3 -8 0 -15 -5 -15 -7 0 -9 9 -6 22 7 24 -26 68 -50 68 -8 0 -11 5 -8 10 10 16
-14 40 -41 40 -12 0 -26 5 -29 10 -3 6 -2 10 3 10 5 0 9 7 9 15 0 22 -18 18
-24 -4 -3 -11 -11 -22 -19 -25 -17 -6 -19 10 -2 20 16 10 -19 34 -49 34 -13 0
-26 7 -29 15 -4 8 -10 12 -15 9 -5 -3 -9 2 -9 10 0 17 -18 31 -28 21 -3 -3 -1
-9 5 -13 7 -4 14 -20 17 -36 4 -22 2 -25 -9 -16 -7 6 -27 15 -45 20 -27 8 -31
7 -26 -7 4 -9 4 -24 0 -35 -4 -14 -9 -16 -19 -8 -14 12 -17 58 -4 66 16 10 9
24 -12 24 -13 0 -18 -4 -13 -12 5 -8 2 -9 -12 -4 -10 5 -27 11 -36 13 -21 6
-24 23 -4 23 8 0 17 7 20 16 4 12 1 14 -14 9 -22 -7 -28 10 -7 19 9 4 9 7 0
12 -8 3 -9 15 -2 37 12 42 11 97 -2 134 -9 26 -15 31 -41 29 -24 -2 -38 6 -65
35 -69 74 -165 87 -233 30 -31 -26 -34 -33 -38 -96 -3 -43 -8 -62 -13 -54 -5
9 -9 9 -9 3 0 -7 -9 -14 -20 -17 -15 -4 -24 2 -35 23 -20 38 -19 59 5 122 16
43 30 60 76 93 30 22 60 48 65 58 12 21 38 22 46 1 4 -12 18 -15 58 -13 45 2
58 -2 85 -24 34 -29 54 -35 47 -14 -2 6 -11 11 -21 9 -9 -2 -16 2 -16 8 0 5 5
10 10 10 16 0 11 32 -7 45 -15 11 -15 13 6 25 13 6 21 8 17 2 -3 -5 4 -12 16
-15 12 -4 25 -1 29 4 8 13 157 20 165 8 3 -5 0 -9 -6 -9 -6 0 -8 -5 -4 -12 5
-7 11 -5 21 7 7 11 13 13 13 6 0 -9 4 -8 15 2 9 10 23 13 37 9 22 -6 21 -7 -5
-10 -26 -3 -27 -5 -12 -16 21 -15 13 -51 -13 -61 -9 -3 -13 -3 -10 1 9 8 -34
44 -44 37 -5 -2 -8 -15 -8 -28 0 -28 26 -45 69 -45 16 0 33 -5 36 -10 4 -7 13
-7 26 0 11 6 17 15 13 21 -4 7 -10 6 -19 -1 -8 -6 -21 -7 -36 -2 -24 9 -24 9
-2 16 17 5 21 13 17 34 -3 19 -2 23 5 13 8 -12 12 -12 26 3 14 13 15 19 5 31
-25 30 23 53 70 35z m-455 -46 c19 -15 18 -16 -12 -9 -23 5 -33 3 -33 -6 0 -7
-2 -10 -5 -7 -9 8 6 38 19 38 6 0 20 -8 31 -16z m520 6 c3 -6 -1 -7 -9 -4 -18
7 -21 14 -7 14 6 0 13 -4 16 -10z m-45 -31 c0 -6 -4 -7 -10 -4 -5 3 -10 11
-10 16 0 6 5 7 10 4 6 -3 10 -11 10 -16z m160 -40 c0 -5 -4 -9 -10 -9 -5 0
-10 7 -10 16 0 8 5 12 10 9 6 -3 10 -10 10 -16z m100 -9 c0 -5 -7 -7 -16 -3
-9 3 -20 0 -25 -8 -6 -10 -8 -6 -5 11 3 14 5 26 5 28 2 7 41 -20 41 -28z
m-1097 -67 c9 -20 14 -39 12 -42 -3 -2 -5 1 -5 7 0 7 -7 12 -15 12 -8 0 -15
-7 -15 -15 0 -9 -9 -15 -21 -15 -18 0 -19 -2 -9 -15 15 -18 37 -20 42 -3 2 6
9 8 16 4 21 -12 -16 -56 -47 -55 -23 0 -24 1 -6 9 19 8 19 9 -2 9 -17 1 -23
-5 -23 -19 0 -11 -6 -20 -12 -20 -7 0 0 -12 16 -26 25 -22 28 -38 8 -39 -30
-3 -50 -18 -45 -33 6 -14 4 -15 -9 -5 -18 15 -29 7 -21 -15 12 -40 28 -62 39
-58 7 3 15 -2 18 -10 4 -10 -3 -14 -25 -14 -26 0 -29 -3 -24 -21 5 -15 3 -19
-8 -17 -31 6 -21 -17 11 -27 17 -5 32 -15 32 -22 0 -10 -6 -10 -25 3 -20 13
-28 14 -40 4 -11 -9 -15 -9 -15 -1 0 7 -4 10 -9 7 -5 -4 -9 25 -10 64 0 38 -3
81 -7 95 -6 25 3 31 42 26 6 -1 16 5 23 12 9 12 7 13 -14 9 -24 -4 -36 13 -14
20 5 2 11 18 11 36 1 27 4 33 20 29 10 -3 18 -4 18 -2 0 2 3 10 6 19 5 12 0
16 -20 16 -14 0 -26 5 -26 11 0 8 12 10 35 6 32 -5 35 -4 35 18 0 18 4 23 15
19 19 -8 19 -3 1 32 -18 34 -13 44 23 44 21 0 30 -7 44 -37z m1137 7 c0 -5 -2
-10 -4 -10 -2 0 -11 -2 -19 -5 -8 -4 -14 0 -14 10 0 8 9 15 19 15 10 0 18 -4
18 -10z m36 -3 c14 5 31 -23 20 -34 -8 -8 -46 27 -45 41 0 7 2 7 5 -1 3 -7 12
-9 20 -6z m384 -1 c30 -12 32 -14 14 -24 -11 -5 -28 -6 -39 -1 -11 4 -15 8
-10 9 6 0 -1 7 -15 15 -24 14 -24 14 -4 15 12 0 36 -6 54 -14z m-487 -3 c8 -7
-11 -33 -23 -33 -5 0 -6 9 -3 20 5 20 15 25 26 13z m-138 -13 c3 -6 -1 -7 -9
-4 -18 7 -21 14 -7 14 6 0 13 -4 16 -10z m215 -20 c0 -5 -2 -10 -4 -10 -3 0
-8 5 -11 10 -3 6 -1 10 4 10 6 0 11 -4 11 -10z m-60 -19 c0 -29 -15 -33 -16
-5 -1 13 2 24 7 24 5 0 9 -9 9 -19z m958 -6 c-2 -7 12 -24 31 -37 19 -13 36
-29 39 -35 6 -21 -27 -15 -40 7 -12 18 -13 18 -25 -8 -8 -17 -11 -19 -8 -6 5
18 2 21 -20 16 -29 -5 -35 17 -10 38 8 7 15 21 15 32 0 11 5 16 10 13 6 -4 9
-13 8 -20z m222 15 c0 -5 -7 -7 -15 -4 -8 4 -15 8 -15 10 0 2 7 4 15 4 8 0 15
-4 15 -10z m-1240 -10 c0 -5 -2 -10 -4 -10 -3 0 -8 5 -11 10 -3 6 -1 10 4 10
6 0 11 -4 11 -10z m570 -10 c0 -5 -5 -10 -11 -10 -5 0 -7 5 -4 10 3 6 8 10 11
10 2 0 4 -4 4 -10z m-425 -10 c3 -5 1 -10 -4 -10 -6 0 -11 5 -11 10 0 6 2 10
4 10 3 0 8 -4 11 -10z m-155 -4 c0 -3 -4 -8 -10 -11 -5 -3 -10 -1 -10 4 0 6 5
11 10 11 6 0 10 -2 10 -4z m470 0 c0 -3 -4 -8 -10 -11 -5 -3 -10 -1 -10 4 0 6
5 11 10 11 6 0 10 -2 10 -4z m796 -32 c16 -20 39 -47 52 -61 24 -26 30 -42 9
-24 -8 6 -17 8 -21 4 -11 -11 -67 50 -63 69 3 10 2 17 -2 16 -12 -2 -41 14
-41 23 0 22 40 6 66 -27z m-893 13 c-3 -4 1 -15 8 -23 9 -11 4 -10 -19 3 -38
22 -41 31 -8 29 13 0 22 -5 19 -9z m-626 -19 c-3 -8 -6 -5 -6 6 -1 11 2 17 5
13 3 -3 4 -12 1 -19z m328 12 c3 -5 1 -10 -4 -10 -6 0 -11 5 -11 10 0 6 2 10
4 10 3 0 8 -4 11 -10z m1318 -2 c9 2 17 -2 17 -9 0 -7 -3 -9 -7 -6 -3 4 -12 2
-19 -4 -9 -8 -16 -5 -24 12 -10 17 -10 20 2 13 7 -5 21 -7 31 -6z m-847 -46
c-7 -7 -46 9 -46 18 0 5 11 4 25 -2 14 -6 23 -13 21 -16z m217 13 c4 -8 2 -17
-3 -20 -6 -4 -10 3 -10 14 0 25 6 27 13 6z m182 5 c8 -13 -5 -13 -25 0 -13 8
-13 10 2 10 9 0 20 -4 23 -10z m444 -29 c10 -6 10 -10 1 -16 -7 -4 -19 0 -28
9 -14 13 -14 16 -2 16 8 0 21 -4 29 -9z m111 -7 c0 -2 -9 -4 -21 -4 -11 0 -18
4 -14 10 5 8 35 3 35 -6z m-540 -4 c0 -5 -4 -10 -10 -10 -5 0 -10 5 -10 10 0
6 5 10 10 10 6 0 10 -4 10 -10z m-1810 -19 c0 -5 -7 -11 -15 -15 -15 -5 -20 5
-8 17 9 10 23 9 23 -2z m1840 5 c0 -3 -4 -8 -10 -11 -5 -3 -10 -1 -10 4 0 6 5
11 10 11 6 0 10 -2 10 -4z m-1760 -47 c0 -5 -10 -5 -23 0 -14 6 -30 6 -38 0
-24 -15 -30 -10 -13 10 14 16 22 17 45 9 16 -5 29 -14 29 -19z m1721 1 c6 0 8
-4 4 -9 -3 -5 -1 -12 5 -16 19 -12 11 -38 -10 -32 -33 9 -23 -10 24 -42 27
-19 47 -26 52 -21 13 13 54 -16 54 -37 0 -21 31 -75 53 -91 9 -7 17 -20 17
-28 0 -12 -6 -11 -29 5 -35 25 -41 26 -41 6 0 -9 11 -20 24 -25 35 -13 41 -29
10 -25 -23 2 -59 25 -40 25 4 0 0 7 -8 16 -9 8 -16 21 -16 27 0 7 4 6 10 -3 9
-13 10 -13 10 0 0 9 -7 26 -16 39 -14 19 -23 22 -51 18 -23 -4 -31 -2 -27 5 5
7 2 9 -8 6 -8 -4 -20 2 -26 13 -10 16 -9 19 7 19 11 0 21 -4 23 -8 5 -13 58
-24 58 -12 0 5 -11 10 -25 10 -14 0 -29 8 -35 20 -6 11 -16 17 -25 14 -11 -5
-13 -2 -9 10 5 12 2 15 -10 10 -12 -5 -16 0 -16 19 0 28 24 52 41 41 7 -4 10
-2 7 6 -3 11 -15 20 -47 37 -1 1 3 8 10 16 12 13 15 13 17 1 2 -8 8 -14 13
-14z m289 -5 c0 -13 -3 -13 -20 -3 -11 7 -20 19 -20 26 0 10 5 10 20 2 11 -6
20 -17 20 -25z m-425 9 c9 -9 13 -19 10 -22 -3 -3 -15 4 -27 16 -13 12 -17 22
-11 22 6 0 19 -7 28 -16z m75 12 c0 -8 -51 -13 -56 -5 -3 5 9 9 25 9 17 0 31
-2 31 -4z m420 -11 c7 -9 8 -15 2 -15 -5 0 -12 7 -16 15 -3 8 -4 15 -2 15 2 0
9 -7 16 -15z m-410 -30 c11 -13 11 -18 0 -28 -10 -9 -11 -9 -6 0 4 7 -5 18
-21 27 -25 14 -26 15 -7 16 12 0 27 -7 34 -15z m460 11 c0 -3 -4 -8 -10 -11
-5 -3 -10 -1 -10 4 0 6 5 11 10 11 6 0 10 -2 10 -4z m-2120 -26 c0 -5 -7 -7
-15 -4 -8 4 -15 8 -15 10 0 2 7 4 15 4 8 0 15 -4 15 -10z m1313 -39 c-1 -2
-12 4 -23 14 -15 14 -17 21 -8 26 11 7 40 -30 31 -40z m472 17 c-9 -42 -11
-44 -30 -28 -19 16 -19 31 0 24 8 -4 15 -1 15 5 0 6 -6 11 -12 12 -10 0 14 15
30 18 2 1 0 -14 -3 -31z m-2125 12 c0 -5 -5 -10 -11 -10 -5 0 -7 5 -4 10 3 6
8 10 11 10 2 0 4 -4 4 -10z m2445 -10 c3 -6 -1 -7 -9 -4 -18 7 -21 14 -7 14 6
0 13 -4 16 -10z m-2024 -55 c10 -25 23 -52 29 -60 11 -13 34 -14 46 -2 14 14
23 7 35 -28 7 -19 19 -35 26 -35 7 0 13 -5 13 -11 0 -5 -4 -7 -10 -4 -5 3 -10
1 -10 -6 0 -7 -8 -5 -21 7 -11 10 -16 20 -10 22 16 5 13 22 -4 22 -8 0 -15 -6
-16 -12 0 -9 -2 -9 -5 -2 -5 13 -44 7 -44 -6 0 -11 -60 -19 -66 -9 -2 5 -11 6
-19 3 -12 -5 -14 0 -9 22 5 27 3 29 -25 29 -23 0 -31 -5 -31 -18 0 -10 5 -15
10 -12 6 3 10 0 10 -8 0 -9 -11 -14 -30 -15 -20 0 -30 4 -30 14 0 8 7 14 15
14 8 0 15 7 15 15 0 8 -5 14 -11 13 -8 -2 -12 17 -14 52 -1 30 0 57 1 60 1 3
32 4 70 3 l67 -1 18 -47z m1769 46 c0 -4 -10 -12 -23 -18 -19 -9 -23 -8 -23 6
0 10 9 18 23 19 13 1 23 -2 23 -7z m-224 -38 c7 -10 14 -25 14 -34 0 -9 10
-24 23 -33 l22 -17 -25 7 c-36 9 -52 27 -54 63 -2 36 1 38 20 14z m279 7 c8
-13 -5 -13 -25 0 -13 8 -13 10 2 10 9 0 20 -4 23 -10z m70 0 c3 -5 2 -10 -4
-10 -5 0 -13 5 -16 10 -3 6 -2 10 4 10 5 0 13 -4 16 -10z m129 -32 c-3 -4 -10
-6 -15 -3 -5 4 -9 2 -9 -3 0 -6 7 -12 15 -16 16 -6 21 -26 7 -26 -16 0 -34 47
-27 71 7 22 8 22 21 4 7 -10 11 -22 8 -27z m-714 -5 c0 -20 -24 -11 -28 10 -2
12 1 15 12 11 9 -3 16 -13 16 -21z m210 18 c0 -6 -4 -13 -10 -16 -5 -3 -10 1
-10 9 0 9 5 16 10 16 6 0 10 -4 10 -9z m-1390 -11 c0 -5 -4 -10 -10 -10 -5 0
-10 5 -10 10 0 6 5 10 10 10 6 0 10 -4 10 -10z m1840 -14 c0 -2 -7 -7 -16 -10
-8 -3 -12 -2 -9 4 6 10 25 14 25 6z m-565 -15 c3 -5 1 -12 -4 -15 -5 -3 -11 1
-15 9 -6 16 9 21 19 6z m410 -3 c15 -7 21 -14 15 -18 -18 -11 -60 1 -60 16 0
17 11 18 45 2z m85 -2 c0 -24 -15 -26 -28 -5 -11 16 -9 19 8 19 11 0 20 -6 20
-14z m-525 -10 c11 -8 25 -12 32 -9 7 3 13 0 13 -6 0 -6 -5 -11 -11 -11 -5 0
-7 -6 -4 -12 4 -7 0 -5 -8 5 -8 10 -24 19 -34 20 -11 0 -20 7 -20 14 0 17 8
16 32 -1z m140 4 c3 -5 -1 -10 -10 -10 -9 0 -13 5 -10 10 3 6 8 10 10 10 2 0
7 -4 10 -10z m-1875 -4 c0 -3 -4 -8 -10 -11 -5 -3 -10 -1 -10 4 0 6 5 11 10
11 6 0 10 -2 10 -4z m1696 -34 c-10 -10 -29 15 -21 28 6 9 10 8 17 -4 6 -10 7
-20 4 -24z m749 9 c3 -5 1 -12 -5 -16 -5 -3 -10 1 -10 9 0 18 6 21 15 7z
m-510 -20 c-3 -6 -11 -8 -17 -5 -6 4 -5 9 3 15 16 10 23 4 14 -10z m53 -6 c-3
-3 -9 2 -12 12 -6 14 -5 15 5 6 7 -7 10 -15 7 -18z m-1285 -6 c17 -1 18 -2 5
-6 -10 -2 -18 -10 -18 -16 0 -7 -4 -6 -10 3 -5 8 -9 22 -9 30 0 10 2 11 6 3 2
-7 14 -14 26 -14z m611 -5 c-4 -38 -14 -42 -14 -6 0 18 4 32 9 32 4 0 7 -12 5
-26z m496 22 c0 -3 -4 -8 -10 -11 -5 -3 -10 -1 -10 4 0 6 5 11 10 11 6 0 10
-2 10 -4z m418 -38 c1 -28 -1 -30 -15 -15 -13 13 -13 17 -2 31 8 8 14 15 15
16 1 0 1 -14 2 -32z m-2198 12 c3 0 0 -4 -5 -8 -6 -4 -18 -19 -28 -34 -10 -16
-22 -28 -27 -28 -14 0 -12 27 3 34 8 3 7 8 -6 16 -33 21 -3 31 63 20z m735 0
c-3 -5 -11 -10 -16 -10 -6 0 -7 5 -4 10 3 6 11 10 16 10 6 0 7 -4 4 -10z
m-834 -29 c6 -69 6 -70 -14 -60 -12 7 -16 17 -12 29 5 15 2 17 -16 13 -12 -4
-25 0 -30 8 -12 19 -11 37 1 19 9 -13 12 -13 20 2 12 20 49 13 51 -11z m866 7
c-3 -8 -6 -5 -6 6 -1 11 2 17 5 13 3 -3 4 -12 1 -19z m493 -5 c0 -13 -3 -13
-15 -3 -8 7 -15 16 -15 21 0 5 7 6 15 3 8 -4 15 -13 15 -21z m780 -8 c0 -5 -5
-3 -10 5 -5 8 -10 20 -10 25 0 6 5 3 10 -5 5 -8 10 -19 10 -25z m-2220 -7 c0
-5 -7 -8 -15 -8 -15 0 -20 21 -8 33 7 7 23 -11 23 -25z m214 26 c16 -6 23 -44
9 -44 -16 1 -40 26 -36 38 5 14 6 14 27 6z m826 -4 c0 -13 -11 -13 -30 0 -12
8 -11 10 8 10 12 0 22 -4 22 -10z m314 -37 c8 -19 -11 -25 -28 -8 -15 16 -33
4 -21 -15 3 -5 1 -10 -6 -10 -7 0 -3 -10 9 -23 12 -13 22 -30 22 -38 0 -12 -2
-12 -10 1 -9 13 -11 13 -21 0 -9 -13 -10 -13 -6 2 3 9 -1 22 -8 28 -8 7 -13
22 -12 33 1 14 -3 21 -12 19 -9 -2 -11 3 -7 13 3 9 6 19 6 21 0 2 9 4 20 4 11
0 20 5 20 10 0 13 47 -20 54 -37z m-940 13 c-3 -8 -12 -12 -20 -9 -17 6 -9 23
11 23 8 0 12 -6 9 -14z m286 -21 c0 -5 -4 -4 -8 3 -7 10 -14 8 -34 -8 -15 -11
-31 -20 -36 -20 -15 0 -2 40 14 41 28 3 32 4 40 12 8 8 24 -11 24 -28z m41 18
c13 -15 12 -15 -11 -3 -34 17 -36 20 -18 20 9 0 22 -7 29 -17z m-151 -8 c0 -8
-7 -15 -15 -15 -16 0 -20 12 -8 23 11 12 23 8 23 -8z m1611 5 c10 -6 19 -16
19 -23 0 -8 -3 -9 -8 -1 -4 6 -16 16 -27 22 -25 14 -11 16 16 2z m266 4 c-3
-3 -12 -4 -19 -1 -8 3 -5 6 6 6 11 1 17 -2 13 -5z m-1567 -14 c0 -5 -7 -10
-15 -10 -8 0 -15 5 -15 10 0 6 7 10 15 10 8 0 15 -4 15 -10z m-111 -9 c9 -6
10 -11 2 -15 -13 -8 -31 1 -31 15 0 11 11 11 29 0z m1586 -9 c-3 -3 -11 0 -18
7 -9 10 -8 11 6 5 10 -3 15 -9 12 -12z m145 -15 c0 -5 -4 -5 -10 -2 -5 3 -10
14 -10 23 0 15 2 15 10 2 5 -8 10 -19 10 -23z m-1466 2 c-4 -7 -9 -24 -10 -37
-5 -41 -14 -37 -14 6 0 23 5 42 13 45 16 6 21 1 11 -14z m1077 -22 c14 -16 31
-27 37 -23 5 3 12 0 15 -6 3 -10 7 -10 20 1 12 9 17 10 17 2 0 -6 -7 -14 -15
-17 -10 -4 -13 -15 -10 -33 3 -19 2 -18 -7 7 -12 35 -38 44 -38 13 0 -13 -6
-19 -19 -18 -13 1 -17 7 -13 20 4 17 1 19 -20 14 -18 -5 -28 -2 -32 8 -3 8 -2
14 2 14 4 -1 17 -1 30 0 33 2 27 19 -10 29 -17 4 -34 14 -36 20 -8 24 52 1 79
-31z m-2198 -155 l-5 -188 36 -72 c35 -69 47 -132 26 -132 -5 0 -10 6 -10 14
0 16 22 19 -314 -45 -255 -48 -296 -51 -296 -18 0 5 -9 29 -20 51 -24 50 -26
86 -5 94 8 4 15 13 15 21 0 8 5 11 10 8 6 -3 10 1 10 10 0 9 4 14 9 11 5 -4
12 0 14 6 3 8 6 6 6 -4 1 -11 6 -15 16 -12 13 5 13 9 3 22 -9 11 -10 14 -1 9
7 -5 21 1 33 13 11 11 28 20 39 20 10 0 30 9 44 20 14 11 38 22 54 23 15 2 42
9 58 17 17 7 40 12 53 11 12 0 22 4 22 9 0 6 16 10 35 10 20 0 48 8 62 18 15
9 24 11 20 5 -5 -8 -3 -13 7 -13 10 0 16 9 17 23 1 18 3 16 9 -8 7 -26 8 -22
10 25 l3 55 6 -45 c5 -36 8 -20 14 75 8 114 13 155 22 155 2 0 2 -85 -2 -188z
m937 181 c0 -5 -5 -15 -10 -23 -8 -12 -10 -11 -10 8 0 12 5 22 10 22 6 0 10
-3 10 -7z m500 -3 c0 -5 -5 -10 -11 -10 -5 0 -7 5 -4 10 3 6 8 10 11 10 2 0 4
-4 4 -10z m-696 -31 c2 -13 9 -23 16 -21 6 1 8 -2 5 -8 -10 -16 -44 17 -40 38
2 9 4 19 4 21 2 11 11 -8 15 -30z m66 22 c2 -1 -1 -6 -8 -13 -16 -16 -42 -19
-42 -4 0 18 9 25 28 21 9 -2 19 -4 22 -4z m1471 -8 c13 -15 12 -15 -8 -4 -24
12 -29 21 -14 21 5 0 15 -7 22 -17z m-1321 3 c0 -3 -4 -8 -10 -11 -5 -3 -10
-1 -10 4 0 6 5 11 10 11 6 0 10 -2 10 -4z m470 -10 c0 -3 -4 -8 -10 -11 -5 -3
-10 -1 -10 4 0 6 5 11 10 11 6 0 10 -2 10 -4z m-849 -19 c-1 -12 -15 -9 -19 4
-3 6 1 10 8 8 6 -3 11 -8 11 -12z m49 -2 c11 -13 10 -14 -4 -9 -9 3 -16 10
-16 15 0 13 6 11 20 -6z m190 5 c0 -5 -5 -10 -11 -10 -5 0 -7 5 -4 10 3 6 8
10 11 10 2 0 4 -4 4 -10z m-650 -21 c0 -5 -9 -9 -20 -9 -19 0 -26 11 -14 23 8
8 34 -3 34 -14z m909 12 c20 -13 4 -31 -27 -31 -20 0 -23 3 -13 9 12 8 8 11
-15 16 -50 11 -50 13 -4 14 25 0 51 -3 59 -8z m1059 -31 c17 0 19 -34 3 -52
-12 -14 -16 -15 -29 -2 -10 10 -18 12 -27 4 -9 -8 -12 -3 -11 19 1 29 19 32
30 5 3 -8 13 -14 21 -14 14 0 14 4 -3 28 -29 41 -36 60 -14 35 11 -13 25 -23
30 -23z m241 31 c7 -5 9 -11 5 -14 -5 -3 -15 1 -22 9 -14 16 -5 18 17 5z
m-903 -38 c-11 -11 -19 6 -11 24 8 17 8 17 12 0 3 -10 2 -21 -1 -24z m-778 13
c35 -17 82 -29 81 -19 -3 20 2 24 16 13 12 -10 15 -10 15 0 0 8 4 9 13 3 18
-14 57 -14 57 0 0 8 3 8 8 2 12 -17 32 -16 32 2 0 13 3 14 12 5 14 -14 52 -16
43 -2 -3 6 2 10 12 10 15 0 43 -39 43 -61 0 -10 -34 -5 -42 6 -7 9 -57 10
-153 3 -38 -3 -40 -5 -37 -32 4 -28 2 -29 -28 -23 -37 8 -67 33 -47 40 9 4 8
8 -3 16 -9 6 -16 7 -18 1 -2 -6 -11 -10 -19 -10 -11 0 -14 7 -9 24 4 15 1 26
-7 29 -6 3 -8 6 -4 6 4 1 20 -5 35 -13z m879 -9 c0 -7 4 -20 8 -29 10 -26 -8
-22 -32 6 -14 16 -18 27 -11 34 13 13 34 6 35 -11z m760 17 c-3 -3 -12 -4 -19
-1 -8 3 -5 6 6 6 11 1 17 -2 13 -5z m-2067 -24 c-6 -11 -15 -20 -20 -20 -14 0
-12 6 6 24 21 22 27 20 14 -4z m390 6 c0 -11 -19 -15 -25 -6 -3 5 1 10 9 10 9
0 16 -2 16 -4z m1654 -11 c3 -9 0 -15 -9 -15 -8 0 -15 7 -15 15 0 8 4 15 9 15
5 0 11 -7 15 -15z m-1004 -5 c0 -5 -4 -10 -10 -10 -5 0 -10 5 -10 10 0 6 5 10
10 10 6 0 10 -4 10 -10z m60 0 c0 -5 -2 -10 -4 -10 -3 0 -8 5 -11 10 -3 6 -1
10 4 10 6 0 11 -4 11 -10z m-150 -10 c0 -5 -5 -10 -11 -10 -5 0 -7 5 -4 10 3
6 8 10 11 10 2 0 4 -4 4 -10z m-112 -17 c2 -7 -1 -13 -8 -13 -6 0 -9 4 -5 9 3
5 -3 12 -12 15 -15 4 -15 5 1 3 11 -1 21 -8 24 -14z m303 6 c11 -5 17 -14 15
-18 -3 -4 6 -6 19 -3 15 2 25 0 25 -7 0 -6 -6 -11 -14 -11 -13 0 -26 -20 -26
-40 0 -5 12 -15 28 -22 18 -9 26 -21 24 -33 -4 -36 -4 -50 2 -76 4 -19 1 -29
-9 -33 -18 -7 -19 -28 -3 -44 18 -18 16 -54 -5 -77 -17 -19 -17 -20 -1 -24 10
-2 25 -10 33 -19 14 -14 11 -15 -31 -10 -51 6 -83 -5 -60 -21 11 -7 11 -9 -2
-14 -9 -4 -16 -2 -16 3 0 6 -9 10 -20 10 -22 0 -27 -16 -7 -23 9 -4 9 -7 0
-17 -10 -11 -17 -8 -37 13 -14 15 -28 22 -31 17 -9 -15 -22 -12 -29 8 -3 9 -9
23 -12 30 -4 8 0 10 12 5 14 -5 16 -2 11 15 -3 13 1 28 9 36 8 8 14 19 14 24
0 14 -38 44 -41 33 -8 -21 -31 6 -24 28 5 17 12 20 28 15 38 -11 42 -10 39 14
-2 14 1 21 9 20 26 -6 37 -23 29 -44 -5 -11 -4 -27 1 -35 13 -21 11 -29 -7
-29 -8 0 -12 -5 -9 -11 4 -6 14 -8 22 -5 8 3 11 2 8 -3 -3 -5 -1 -12 4 -15 5
-4 12 2 14 11 3 11 5 8 6 -9 1 -23 6 -28 26 -28 18 0 25 5 25 19 0 12 -7 18
-17 17 -12 -1 -17 5 -15 17 3 15 -1 17 -17 12 -14 -4 -21 0 -26 15 -9 28 1 37
26 22 12 -8 26 -9 36 -4 11 6 12 11 4 16 -6 4 -11 1 -11 -6 -1 -9 -4 -8 -13 3
-7 9 -19 18 -27 22 -11 4 -10 7 8 12 12 4 22 11 22 15 0 12 -29 20 -35 10 -4
-6 -11 -10 -16 -10 -6 0 -8 4 -5 9 3 5 -1 14 -9 21 -18 15 -13 55 6 55 18 0
25 -35 9 -45 -8 -5 -9 -10 -2 -14 6 -3 18 2 28 11 13 13 18 15 22 5 6 -18 32
4 32 27 0 9 -3 12 -8 6 -9 -12 -52 -16 -52 -4 0 4 10 15 22 23 17 12 24 13 29
4 5 -7 11 -10 14 -6 10 10 -27 77 -40 72 -7 -3 -15 2 -18 10 -4 10 -18 16 -36
16 -16 0 -31 6 -35 15 -3 8 -1 15 4 15 6 0 10 -5 10 -12 0 -6 9 -3 21 8 17 16
22 16 29 4 6 -8 10 -18 10 -22 0 -4 7 -5 15 -1 14 5 14 8 -1 24 -19 21 -13 24
17 8z m-528 -28 c4 -17 2 -18 -13 -9 -10 7 -16 17 -13 25 7 17 19 9 26 -16z
m62 9 c3 -6 -1 -7 -9 -4 -18 7 -21 14 -7 14 6 0 13 -4 16 -10z m1425 -10 c19
-11 30 -19 24 -20 -6 0 -11 -7 -11 -15 0 -8 4 -12 9 -9 4 3 8 -5 8 -17 0 -21
-1 -21 -25 -5 -14 9 -30 14 -36 10 -7 -4 -10 3 -9 17 3 38 1 49 -11 49 -6 0
-8 -7 -4 -17 5 -14 3 -15 -6 -6 -13 13 -4 33 14 33 7 -1 28 -9 47 -20z m57 14
c-3 -3 -12 -4 -19 -1 -8 3 -5 6 6 6 11 1 17 -2 13 -5z m-1789 -29 c-6 -29 6
-41 47 -48 17 -3 5 -3 -25 -1 -90 6 -100 11 -57 29 13 6 21 17 19 28 -2 9 2
17 9 17 7 0 9 -10 7 -25z m26 3 c-4 -6 0 -14 7 -19 7 -4 10 -11 6 -16 -5 -4
-12 -1 -17 7 -13 20 -13 53 0 45 6 -4 7 -11 4 -17z m1554 -57 c-3 -13 -9 -10
-31 13 -15 16 -27 34 -26 40 0 6 7 1 16 -11 8 -13 20 -23 26 -23 7 0 7 4 -1
12 -7 7 -12 21 -11 33 0 15 4 12 15 -14 8 -18 14 -41 12 -50z m-1043 39 c-5
-8 -11 -8 -17 -2 -6 6 -7 16 -3 22 5 8 11 8 17 2 6 -6 7 -16 3 -22z m45 21 c0
-5 -7 -11 -15 -15 -15 -5 -20 5 -8 17 9 10 23 9 23 -2z m1247 -8 c2 -6 -3 -13
-11 -16 -10 -4 -14 0 -13 14 1 20 18 21 24 2z m-1541 -5 c5 -7 3 -8 -5 -3 -9
5 -12 1 -11 -11 1 -11 2 -28 1 -39 -1 -17 -4 -15 -16 9 -14 26 -14 30 2 42 22
16 20 16 29 2z m40 -17 c-4 -6 -12 -11 -18 -11 -7 0 -7 4 1 13 6 8 9 16 7 19
-1 3 1 2 7 -2 5 -5 6 -13 3 -19z m302 -13 c-2 -26 1 -33 15 -32 9 1 17 -4 17
-12 0 -8 4 -14 9 -14 11 0 2 -38 -11 -46 -6 -4 -14 0 -20 7 -7 11 -8 9 -6 -6
2 -12 -3 -20 -12 -20 -11 0 -15 12 -16 45 -1 63 6 110 18 110 5 0 8 -15 6 -32z
m-198 11 c0 -5 4 -8 9 -4 5 3 13 1 16 -5 4 -6 15 -10 25 -8 11 2 25 -4 32 -13
7 -10 23 -20 35 -23 18 -6 21 -4 16 15 -4 16 -2 20 8 17 8 -3 13 -16 12 -29
-5 -70 -11 -101 -21 -111 -7 -7 -8 -17 -2 -29 6 -10 7 -24 4 -33 -5 -12 -10
-13 -24 -4 -10 6 -16 18 -13 25 3 7 -2 13 -11 13 -9 0 -16 7 -16 16 0 19 25
45 41 42 6 -2 14 3 16 10 3 6 0 12 -6 12 -6 0 -11 8 -11 18 0 23 -19 42 -43
42 -17 0 -17 -1 -1 -29 15 -26 16 -31 2 -44 -11 -12 -18 -13 -26 -5 -18 18
-23 5 -12 -30 5 -20 5 -30 -1 -27 -5 4 -9 -3 -9 -14 0 -13 8 -21 22 -23 12 -2
31 -18 42 -37 l19 -33 -20 10 c-11 6 -23 9 -26 5 -3 -3 -9 6 -12 20 -5 19 -12
24 -28 20 -17 -4 -19 -2 -8 5 11 8 10 12 -7 21 -25 13 -51 93 -33 99 6 2 11 8
11 13 0 6 -4 8 -9 5 -16 -10 -19 18 -4 36 8 9 16 28 17 42 1 24 16 38 16 15z
m-338 -24 c3 -13 1 -23 -5 -22 -5 1 -12 -4 -15 -12 -3 -9 0 -11 8 -6 10 6 12
1 7 -21 -3 -19 0 -32 11 -41 26 -19 32 -15 22 11 -7 19 -5 26 6 30 25 10 31 7
37 -14 6 -23 -3 -26 -22 -7 -11 10 -13 9 -9 -3 6 -18 46 -26 61 -11 8 8 1 19
-23 41 -19 16 -32 29 -28 30 14 0 58 -24 58 -32 0 -5 4 -7 9 -3 5 3 17 -2 26
-12 16 -16 16 -17 -1 -30 -23 -17 0 -17 26 0 17 10 22 9 29 -1 4 -8 11 -13 15
-13 20 3 26 0 21 -9 -4 -6 -12 -7 -22 -1 -22 12 -54 2 -51 -17 4 -25 -32 -28
-39 -3 -4 14 -13 21 -30 21 -21 0 -22 -3 -13 -20 13 -25 -5 -27 -19 -2 -6 9
-11 12 -11 7 0 -16 -40 -16 -40 -1 0 8 -11 12 -29 11 -25 -1 -30 3 -35 27 -3
15 -12 28 -19 28 -16 0 -53 37 -45 45 8 9 38 -6 32 -16 -3 -5 2 -9 10 -9 9 0
16 -4 16 -9 0 -13 39 -21 47 -8 3 5 -4 19 -17 29 l-23 19 22 6 c16 4 21 11 18
24 -3 11 -2 19 3 19 4 0 10 -11 12 -25z m98 15 c0 -5 -17 -10 -37 -9 -34 1
-35 2 -13 9 36 11 50 11 50 0z m1295 -11 c5 -6 4 -9 -4 -9 -7 0 -9 -4 -6 -10
3 -5 1 -10 -4 -10 -6 0 -11 5 -11 11 0 7 -8 18 -17 26 -16 13 -16 13 7 7 14
-3 29 -10 35 -15z m300 1 c3 -5 1 -10 -4 -10 -6 0 -11 5 -11 10 0 6 2 10 4 10
3 0 8 -4 11 -10z m-1845 -15 c5 3 11 1 15 -5 3 -5 -3 -10 -14 -10 -14 0 -21 6
-20 18 0 10 3 12 6 4 2 -6 9 -10 13 -7z m1814 -13 c16 -7 26 -15 23 -18 -10
-11 -67 20 -67 36 0 9 3 11 8 5 4 -6 20 -16 36 -23z m-1584 14 c0 -8 -51 -13
-56 -5 -3 5 9 9 25 9 17 0 31 -2 31 -4z m207 -75 c6 -25 9 -48 7 -50 -2 -2 -4
1 -4 7 0 7 -10 12 -22 12 -13 0 -18 4 -13 8 13 9 16 62 4 62 -5 0 -9 -4 -9
-10 0 -5 -4 -10 -10 -10 -5 0 -10 7 -10 15 0 8 4 15 10 15 5 0 6 8 3 18 -6 15
-4 15 13 -2 10 -11 24 -40 31 -65z m-137 47 c17 -12 30 -26 30 -30 0 -10 -24
3 -60 31 -34 28 -7 27 30 -1z m1176 -29 c3 -5 1 -9 -5 -9 -17 0 -41 12 -41 20
0 10 38 1 46 -11z m71 -9 c0 -20 -4 -27 -11 -21 -6 5 -20 11 -31 13 -18 3 -16
6 10 21 17 9 30 16 31 17 0 0 1 -13 1 -30z m164 13 c13 -15 12 -15 -8 -4 -24
12 -29 21 -14 21 5 0 15 -7 22 -17z m59 -2 c0 -4 -9 -7 -20 -8 -19 -2 -26 8
-14 20 7 7 34 -2 34 -12z m-1396 -7 c6 -15 4 -15 -11 -3 -10 7 -20 15 -22 16
-2 2 3 3 11 3 9 0 19 -7 22 -16z m-509 -4 c3 -5 -3 -10 -14 -10 -12 0 -21 5
-21 10 0 6 6 10 14 10 8 0 18 -4 21 -10z m170 -10 c3 -5 1 -10 -4 -10 -6 0
-11 5 -11 10 0 6 2 10 4 10 3 0 8 -4 11 -10z m1593 -8 c2 -7 -3 -12 -12 -12
-9 0 -16 7 -16 16 0 17 22 14 28 -4z m102 -14 c0 -6 -3 -8 -7 -5 -3 4 -12 2
-20 -4 -16 -14 -18 2 -1 19 12 12 28 7 28 -10z m-308 -7 c3 9 9 9 26 0 12 -7
26 -10 31 -7 4 3 8 -5 8 -17 1 -41 3 -47 16 -47 8 0 20 -11 27 -25 7 -14 17
-25 22 -25 4 0 8 -4 8 -8 0 -20 -60 -10 -85 14 -14 13 -28 24 -31 24 -10 0 -3
-29 11 -40 21 -18 19 -26 -9 -25 -31 0 -44 13 -26 26 13 8 13 10 0 19 -11 7
-17 5 -22 -8 -5 -14 -7 -14 -7 -1 -1 8 4 20 11 27 9 9 9 12 1 12 -7 0 -19 -10
-28 -22 -10 -14 -15 -17 -14 -8 1 8 -5 31 -14 50 -20 45 -14 49 18 14 22 -25
25 -26 23 -9 -2 14 2 19 15 17 21 -4 23 16 2 24 -8 4 -15 11 -15 16 0 6 6 6
14 -1 11 -9 15 -9 18 0z m-982 -33 c10 -3 8 -6 -8 -10 -12 -4 -20 -2 -16 3 3
5 0 9 -5 9 -6 0 -11 5 -11 11 0 8 4 8 13 2 6 -6 19 -12 27 -15z m1128 -11 c11
-8 11 -12 0 -18 -7 -5 -20 -9 -28 -9 -13 0 -13 2 -1 9 13 8 13 12 0 27 -12 16
-12 17 1 9 8 -4 21 -13 28 -18z m162 19 c0 -3 -4 -8 -10 -11 -5 -3 -10 -1 -10
4 0 6 5 11 10 11 6 0 10 -2 10 -4z m-130 -16 c0 -5 -2 -10 -4 -10 -3 0 -8 5
-11 10 -3 6 -1 10 4 10 6 0 11 -4 11 -10z m109 -12 c13 -21 13 -22 -2 -10 -9
8 -21 11 -27 7 -11 -7 -14 8 -3 18 11 11 18 8 32 -15z m-794 2 c3 -5 -1 -10
-10 -10 -9 0 -13 5 -10 10 3 6 8 10 10 10 2 0 7 -4 10 -10z m339 1 c3 -5 -1
-12 -10 -15 -20 -8 -29 -1 -19 13 8 13 22 14 29 2z m506 -1 c0 -5 -4 -10 -9
-10 -6 0 -13 5 -16 10 -3 6 1 10 9 10 9 0 16 -4 16 -10z m-1397 -34 c4 -10 1
-13 -8 -9 -8 3 -12 9 -9 14 7 12 11 11 17 -5z m607 7 c0 -11 -32 -43 -43 -43
-6 0 -3 8 6 18 10 10 14 22 10 25 -3 4 1 7 10 7 10 0 17 -3 17 -7z m-688 -41
c-3 -22 1 -34 12 -38 26 -10 18 -25 -9 -18 -17 4 -25 2 -25 -7 0 -9 -3 -10 -8
-4 -4 6 -20 16 -37 23 -25 12 -31 11 -41 -2 -15 -21 -24 -20 -24 4 0 13 -5 18
-15 14 -8 -4 -15 -2 -15 4 0 13 44 24 48 12 7 -20 23 -10 17 10 -3 11 -2 20 3
20 18 0 62 -27 55 -33 -3 -4 -1 -7 5 -7 16 0 15 27 0 32 -17 6 1 30 20 26 13
-2 16 -12 14 -36z m958 27 c0 -15 -18 -19 -23 -6 -3 8 1 14 9 14 8 0 14 -4 14
-8z m335 0 c11 -17 -1 -21 -15 -4 -8 9 -8 15 -2 15 6 0 14 -5 17 -11z m-1225
-25 c0 -2 -7 -4 -15 -4 -8 0 -15 4 -15 10 0 5 7 7 15 4 8 -4 15 -8 15 -10z
m80 -10 c0 -2 -9 -4 -20 -4 -11 0 -20 4 -20 9 0 5 9 7 20 4 11 -3 20 -7 20 -9z
m827 -8 c-3 -7 0 -20 6 -27 7 -7 2 -5 -10 5 -27 22 -29 36 -7 36 10 0 14 -6
11 -14z m43 0 c0 -8 7 -22 16 -30 22 -22 1 -20 -26 2 -13 11 -20 24 -16 30 10
17 26 15 26 -2z m-932 -23 c-2 -14 3 -17 23 -15 17 1 29 -3 33 -13 6 -17 -5
-20 -21 -4 -8 8 -16 5 -30 -10 -19 -20 -21 -20 -34 -5 -11 14 -11 18 -1 21 8
3 5 11 -10 24 l-23 18 33 1 c26 0 32 -4 30 -17z m303 7 c5 0 9 -8 9 -17 0 -13
-2 -15 -8 -5 -5 7 -16 10 -25 6 -12 -4 -14 -11 -6 -31 11 -30 11 -33 0 -33 -5
0 -12 12 -15 26 -5 20 -10 23 -21 14 -9 -7 -15 -8 -20 0 -9 15 3 30 26 30 10
0 19 5 19 11 0 6 7 8 16 5 9 -3 20 -6 25 -6z m-211 -43 c0 -16 -18 3 -23 25
-6 22 -5 22 8 4 8 -11 15 -24 15 -29z m517 3 c7 0 13 6 13 14 0 8 4 17 9 20 4
3 8 -5 7 -17 -1 -15 -8 -23 -24 -25 -23 -4 -62 22 -62 40 0 5 10 0 22 -12 12
-11 28 -20 35 -20z m3 36 c0 -3 -4 -8 -10 -11 -5 -3 -10 -1 -10 4 0 6 5 11 10
11 6 0 10 -2 10 -4z m690 -6 c0 -5 -2 -10 -4 -10 -3 0 -8 5 -11 10 -3 6 -1 10
4 10 6 0 11 -4 11 -10z m-495 -10 c3 -5 1 -10 -4 -10 -6 0 -11 5 -11 10 0 6 2
10 4 10 3 0 8 -4 11 -10z m60 -16 c24 -25 10 -29 -16 -5 -13 12 -18 21 -12 21
7 0 19 -7 28 -16z m-700 -13 c3 -5 1 -12 -5 -16 -5 -3 -10 1 -10 9 0 18 6 21
15 7z m-1829 -36 c15 -38 19 -79 5 -71 -4 3 -23 1 -42 -5 -19 -5 -59 -12 -89
-15 -30 -4 -63 -10 -72 -15 -22 -12 -48 -11 -48 0 0 5 15 13 32 16 18 4 51 19
73 33 40 26 44 28 78 30 12 2 16 9 14 25 -2 12 -2 16 0 9 3 -7 8 -10 13 -7 5
3 7 12 3 20 -12 32 19 13 33 -20z m1598 13 c-3 -5 -12 -4 -20 3 -19 16 -18 18
6 12 11 -3 17 -9 14 -15z m270 -5 c-4 -16 -11 -31 -17 -34 -10 -7 -1 -29 12
-29 10 0 24 39 22 61 -1 9 6 19 15 23 13 5 15 2 10 -20 -5 -20 -2 -32 13 -46
12 -10 21 -24 21 -31 0 -7 16 -19 35 -26 36 -13 39 -31 4 -31 -10 0 -19 -4
-19 -10 0 -5 5 -10 11 -10 5 0 7 -5 4 -10 -4 -6 -11 -8 -16 -5 -5 4 -12 -1
-15 -9 -7 -18 -39 -22 -49 -6 -3 6 1 10 9 10 13 0 14 3 4 19 -9 15 -9 23 1 34
16 20 -1 31 -36 23 -19 -5 -31 -1 -51 21 -22 24 -23 28 -9 31 9 2 17 12 17 23
0 10 5 19 10 19 6 0 10 7 10 15 0 8 5 15 10 15 6 0 8 -11 4 -27z m950 12 c-4
-8 -11 -12 -16 -9 -6 4 -5 10 3 15 19 12 19 11 13 -6z m84 -4 c3 -8 -1 -12 -9
-9 -7 2 -15 10 -17 17 -3 8 1 12 9 9 7 -2 15 -10 17 -17z m37 9 c3 -5 -1 -10
-9 -10 -9 0 -16 5 -16 10 0 6 4 10 9 10 6 0 13 -4 16 -10z m-655 -21 c0 -5 -7
-9 -15 -9 -9 0 -12 6 -9 15 6 15 24 11 24 -6z m296 10 c10 -17 -13 -36 -27
-22 -12 12 -4 33 11 33 5 0 12 -5 16 -11z m-857 -16 c8 -15 11 -15 25 -3 13
10 20 10 28 2 9 -9 7 -12 -7 -12 -16 -1 -13 -7 18 -34 43 -39 34 -60 -18 -42
-23 8 -29 16 -27 33 2 14 -3 23 -17 28 -12 3 -21 13 -21 21 0 9 -5 12 -12 8
-7 -4 -8 -3 -4 4 10 17 23 15 35 -5z m501 -3 c0 -5 -7 -10 -15 -10 -8 0 -15 5
-15 10 0 6 7 10 15 10 8 0 15 -4 15 -10z m531 -27 c13 -17 13 -17 -6 -3 -11 8
-22 16 -24 17 -2 2 0 3 6 3 6 0 17 -8 24 -17z m115 2 c11 -29 -1 -34 -25 -10
-23 25 -23 25 -2 25 12 0 24 -7 27 -15z m-1205 -18 c-10 -9 -11 -8 -5 6 3 10
9 15 12 12 3 -3 0 -11 -7 -18z m494 2 c5 -5 17 -9 27 -9 12 0 18 -7 18 -21 0
-17 -4 -20 -24 -15 -14 3 -28 2 -31 -4 -9 -15 -25 -12 -25 5 0 8 -5 15 -11 15
-5 0 -8 4 -5 9 4 5 1 11 -6 13 -6 2 -8 10 -4 16 8 13 43 8 61 -9z m105 -14
c18 0 12 -20 -7 -23 -14 -2 -19 4 -21 25 -1 21 1 24 8 13 5 -8 14 -15 20 -15z
m350 18 c0 -8 -47 -33 -62 -33 -13 0 -9 28 5 33 19 8 57 8 57 0z m-1110 -63
c0 -18 -19 -11 -30 11 -11 19 -10 20 9 9 12 -6 21 -15 21 -20z m1067 -18 c13
-15 18 -28 13 -30 -11 -4 -80 49 -80 61 0 16 45 -5 67 -31z m-857 -17 c-7 -8
-18 -15 -24 -14 -7 0 -6 2 2 6 6 2 12 13 12 22 0 24 14 37 18 16 2 -9 -2 -22
-8 -30z m400 -1 c0 -8 -4 -14 -9 -14 -5 0 -16 -7 -25 -15 -18 -19 -52 -9 -36
10 8 9 8 15 0 20 -17 10 0 26 21 20 11 -4 19 -2 19 6 0 9 4 8 15 -1 8 -7 15
-19 15 -26z m107 4 c-3 -7 -5 -2 -5 12 0 14 2 19 5 13 2 -7 2 -19 0 -25z
m-447 7 c0 -8 -9 -15 -20 -15 -20 0 -26 11 -13 23 12 13 33 7 33 -8z m420 11
c0 -3 -4 -8 -10 -11 -5 -3 -10 -1 -10 4 0 6 5 11 10 11 6 0 10 -2 10 -4z m-55
-16 c3 -5 1 -10 -4 -10 -6 0 -11 5 -11 10 0 6 2 10 4 10 3 0 8 -4 11 -10z
m215 6 c0 -3 -4 -8 -10 -11 -5 -3 -10 -1 -10 4 0 6 5 11 10 11 6 0 10 -2 10
-4z m290 -22 c0 -8 -4 -12 -10 -9 -5 3 -10 10 -10 16 0 5 5 9 10 9 6 0 10 -7
10 -16z m-970 -14 c0 -5 -7 -10 -15 -10 -8 0 -15 5 -15 10 0 6 7 10 15 10 8 0
15 -4 15 -10z m143 -9 c3 -14 -1 -18 -19 -18 -17 0 -24 5 -24 18 0 12 7 19 19
19 10 0 21 -8 24 -19z m447 9 c0 -5 -4 -10 -10 -10 -5 0 -10 5 -10 10 0 6 5
10 10 10 6 0 10 -4 10 -10z m85 -10 c-3 -5 -10 -10 -16 -10 -5 0 -9 5 -9 10 0
6 7 10 16 10 8 0 12 -4 9 -10z m-109 -32 c45 -27 48 -52 3 -28 -13 8 -19 7
-19 0 0 -7 -13 2 -30 18 -16 17 -30 33 -30 37 0 9 37 -4 76 -27z m-808 -11 c3
-16 1 -17 -17 -7 -25 13 -28 33 -4 28 10 -2 19 -11 21 -21z m482 13 c0 -5 -7
-10 -16 -10 -8 0 -12 5 -9 10 3 6 10 10 16 10 5 0 9 -4 9 -10z m183 -22 c15
-14 25 -34 25 -51 0 -15 -2 -26 -4 -24 -7 6 -51 97 -48 97 2 0 14 -10 27 -22z
m-67 -2 c3 -8 1 -23 -6 -33 -10 -17 -11 -17 -8 2 2 11 -3 25 -12 32 -13 11
-13 12 3 13 10 0 20 -6 23 -14z m-142 -16 c39 -15 31 -29 -9 -16 -19 6 -35 14
-35 18 0 11 14 10 44 -2z m491 0 c3 -5 -1 -10 -9 -10 -8 0 -18 5 -21 10 -3 6
1 10 9 10 8 0 18 -4 21 -10z m-705 -34 c-1 -21 -1 -21 -15 -2 -19 25 -19 37 0
30 8 -4 15 -16 15 -28z m310 20 c0 -11 -19 -15 -25 -6 -3 5 1 10 9 10 9 0 16
-2 16 -4z m346 -11 c-8 -8 -18 -15 -22 -15 -3 0 -1 7 6 15 7 8 17 15 22 15 5
0 3 -7 -6 -15z m-142 -30 c3 -8 2 -15 -2 -15 -4 0 -18 -3 -32 -7 l-25 -6 20
21 c24 25 31 27 39 7z m106 5 c8 -5 11 -12 8 -16 -10 -9 -38 3 -38 16 0 12 10
13 30 0z m-225 -10 c3 -5 1 -10 -4 -10 -6 0 -11 5 -11 10 0 6 2 10 4 10 3 0 8
-4 11 -10z m-442 -14 c4 -10 0 -12 -14 -9 -22 6 -26 23 -5 23 8 0 16 -6 19
-14z m327 4 c0 -5 -5 -10 -11 -10 -5 0 -7 5 -4 10 3 6 8 10 11 10 2 0 4 -4 4
-10z m90 -20 c0 -14 -15 -19 -29 -10 -17 10 -5 31 14 23 8 -3 15 -9 15 -13z
m-230 -4 c0 -11 -19 -15 -25 -6 -3 5 1 10 9 10 9 0 16 -2 16 -4z m560 -36 c0
-5 -2 -10 -4 -10 -3 0 -8 5 -11 10 -3 6 -1 10 4 10 6 0 11 -4 11 -10z m-214
-28 c-3 -3 -1 -11 5 -19 15 -17 -2 -17 -26 0 -20 16 -12 39 11 30 8 -3 12 -8
10 -11z m226 -24 c-6 -6 -15 -8 -19 -4 -4 4 -1 11 7 16 19 12 27 3 12 -12z
m-397 -14 c24 -37 13 -39 -20 -4 -21 22 -24 30 -13 30 9 0 23 -12 33 -26z
m-121 -19 c21 -32 20 -45 -4 -45 -17 0 -18 -4 -10 -25 8 -20 6 -25 -6 -25 -13
0 -15 9 -12 45 2 25 0 45 -4 45 -5 0 -8 7 -8 15 0 23 26 18 44 -10z m-150 -11
c6 -15 -9 -28 -23 -20 -5 3 -11 14 -14 25 -3 14 0 17 14 14 9 -3 20 -11 23
-19z m-620 -10 c4 -10 1 -14 -6 -12 -15 5 -23 28 -10 28 5 0 13 -7 16 -16z
m816 -75 c0 -5 -7 -9 -15 -9 -15 0 -20 12 -9 23 8 8 24 -1 24 -14z m200 17 c0
-3 -4 -8 -10 -11 -5 -3 -10 -1 -10 4 0 6 5 11 10 11 6 0 10 -2 10 -4z"/>
<path d="M490 3780 c0 -5 5 -10 10 -10 6 0 10 5 10 10 0 6 -4 10 -10 10 -5 0
-10 -4 -10 -10z"/>
<path d="M2494 3185 c-18 -14 -18 -14 4 -8 12 3 22 9 22 14 0 12 -3 11 -26 -6z"/>
<path d="M921 2957 c-6 -8 -8 -17 -4 -20 12 -13 22 -7 20 13 -2 24 -1 24 -16
7z"/>
<path d="M1215 2763 c15 -16 55 -26 55 -14 0 6 -6 11 -14 11 -8 0 -23 3 -33 6
-12 5 -15 4 -8 -3z"/>
<path d="M1768 2753 c6 -2 18 -2 25 0 6 3 1 5 -13 5 -14 0 -19 -2 -12 -5z"/>
<path d="M2897 2076 c4 -5 -3 -7 -14 -4 -12 3 -27 2 -34 -3 -10 -6 -11 -9 -1
-9 6 0 12 -4 12 -10 0 -5 -7 -10 -15 -10 -22 0 -18 -18 6 -25 15 -5 18 -9 9
-15 -8 -5 -1 -11 21 -19 23 -8 35 -8 39 -1 7 12 40 3 40 -11 0 -19 -2 -24 -11
-22 -4 2 -6 -4 -3 -12 7 -17 24 -20 24 -5 0 6 10 15 23 20 12 5 16 9 10 9 -7
1 -13 10 -13 20 0 24 -25 31 -63 18 -20 -7 -32 -6 -40 2 -9 9 -8 11 6 6 10 -4
17 -2 17 4 0 6 7 11 15 11 8 0 15 7 15 16 0 8 4 12 10 9 5 -3 16 -2 24 2 11 6
9 12 -7 28 -15 15 -19 16 -14 4 4 -11 -3 -20 -20 -28 -26 -12 -47 -6 -37 10 3
5 9 7 14 4 4 -3 13 2 20 10 11 13 8 15 -13 13 -14 -1 -23 -6 -20 -12z m83
-104 c0 -8 -1 -13 -3 -11 -1 2 -9 12 -16 22 -12 15 -12 17 3 11 9 -3 16 -13
16 -22z"/>
<path d="M3040 2061 c0 -10 30 -24 37 -17 3 3 2 9 -2 15 -8 13 -35 15 -35 2z"/>
<path d="M2983 2033 c-18 -7 -16 -23 2 -23 8 0 15 7 15 15 0 8 -1 15 -2 14 -2
0 -9 -3 -15 -6z"/>
<path d="M3070 1960 c0 -5 7 -10 15 -10 8 0 15 5 15 10 0 6 -7 10 -15 10 -8 0
-15 -4 -15 -10z"/>
<path d="M3210 1946 c0 -9 30 -14 35 -6 4 6 -3 10 -14 10 -12 0 -21 -2 -21 -4z"/>
<path d="M2955 1900 c3 -5 8 -10 11 -10 2 0 4 5 4 10 0 6 -5 10 -11 10 -5 0
-7 -4 -4 -10z"/>
<path d="M3686 1841 c-7 -10 22 -37 30 -28 4 3 -1 13 -9 22 -9 8 -18 11 -21 6z"/>
<path d="M3640 1831 c0 -5 5 -13 10 -16 6 -3 10 -2 10 4 0 5 -4 13 -10 16 -5
3 -10 2 -10 -4z"/>
<path d="M2920 1811 c0 -5 5 -13 10 -16 6 -3 10 -2 10 4 0 5 -4 13 -10 16 -5
3 -10 2 -10 -4z"/>
<path d="M3375 1800 c3 -5 8 -10 11 -10 2 0 4 5 4 10 0 6 -5 10 -11 10 -5 0
-7 -4 -4 -10z"/>
<path d="M3180 1786 c0 -9 5 -16 10 -16 6 0 10 4 10 9 0 6 -4 13 -10 16 -5 3
-10 -1 -10 -9z"/>
<path d="M3853 1762 c1 -19 6 -28 15 -25 6 3 12 1 12 -5 0 -6 -6 -13 -12 -15
-7 -3 -8 -6 -3 -6 6 0 17 4 25 9 13 9 13 12 -3 21 -9 6 -15 14 -12 18 2 5 -2
14 -10 21 -12 10 -14 7 -12 -18z"/>
<path d="M3631 1771 c-12 -8 -10 -12 12 -22 15 -7 27 -17 27 -23 0 -6 5 -3 11
7 21 36 -13 61 -50 38z"/>
<path d="M3712 1758 c17 -25 58 -33 58 -12 0 8 -9 14 -19 14 -11 0 -23 5 -26
10 -3 6 -11 10 -17 10 -6 0 -4 -9 4 -22z"/>
<path d="M3064 1755 c-7 -18 1 -31 24 -37 21 -6 26 18 9 40 -13 16 -26 15 -33
-3z"/>
<path d="M2950 1752 c0 -6 9 -12 20 -15 11 -3 20 -3 20 -1 0 2 -9 8 -20 14
-11 6 -20 7 -20 2z"/>
<path d="M3615 1730 c3 -5 8 -10 11 -10 2 0 4 5 4 10 0 6 -5 10 -11 10 -5 0
-7 -4 -4 -10z"/>
<path d="M3940 1725 c0 -8 4 -15 10 -15 5 0 7 7 4 15 -4 8 -8 15 -10 15 -2 0
-4 -7 -4 -15z"/>
<path d="M3985 1730 c-3 -5 -1 -10 4 -10 6 0 11 5 11 10 0 6 -2 10 -4 10 -3 0
-8 -4 -11 -10z"/>
<path d="M3493 1723 c-13 -2 -23 -11 -23 -19 0 -21 23 -17 38 6 7 11 11 19 10
19 -2 -1 -13 -4 -25 -6z"/>
<path d="M3540 1715 c0 -8 7 -15 16 -15 9 0 14 -6 12 -12 -3 -7 4 -21 14 -30
15 -15 18 -15 18 -3 0 8 -5 15 -11 15 -6 0 -9 5 -7 12 5 13 -21 48 -34 48 -5
0 -8 -7 -8 -15z"/>
<path d="M4015 1720 c3 -5 8 -10 11 -10 2 0 4 5 4 10 0 6 -5 10 -11 10 -5 0
-7 -4 -4 -10z"/>
<path d="M3327 1714 c-8 -8 1 -24 14 -24 5 0 9 7 9 15 0 15 -12 20 -23 9z"/>
<path d="M3280 1694 c0 -10 -6 -14 -15 -10 -8 3 -15 1 -15 -4 0 -6 4 -10 9
-10 5 0 17 -3 27 -7 13 -5 16 -3 12 9 -4 9 -1 21 5 27 8 8 7 11 -6 11 -9 0
-17 -7 -17 -16z"/>
<path d="M3680 1699 c0 -6 -9 -8 -20 -4 -11 4 -20 2 -20 -4 0 -6 15 -10 34 -8
22 1 32 6 29 15 -6 15 -23 16 -23 1z"/>
<path d="M3980 1700 c0 -5 5 -10 11 -10 5 0 7 5 4 10 -3 6 -8 10 -11 10 -2 0
-4 -4 -4 -10z"/>
<path d="M3135 1684 c9 -9 19 -13 23 -10 3 4 0 11 -8 16 -24 15 -33 11 -15 -6z"/>
<path d="M3200 1690 c0 -5 7 -10 16 -10 8 0 12 5 9 10 -3 6 -10 10 -16 10 -5
0 -9 -4 -9 -10z"/>
<path d="M4015 1680 c-18 -8 -17 -9 8 -9 16 -1 26 3 22 9 -3 6 -7 10 -8 9 -1
0 -11 -4 -22 -9z"/>
<path d="M4070 1681 c0 -5 5 -13 10 -16 6 -3 10 -2 10 4 0 5 -4 13 -10 16 -5
3 -10 2 -10 -4z"/>
<path d="M4128 1683 c7 -3 16 -2 19 1 4 3 -2 6 -13 5 -11 0 -14 -3 -6 -6z"/>
<path d="M3484 1671 c4 -7 -2 -14 -15 -19 -20 -8 -20 -9 -5 -15 10 -4 22 -5
27 -1 13 7 11 31 -3 40 -7 4 -8 3 -4 -5z"/>
<path d="M3620 1660 c-13 -8 -12 -10 3 -10 9 0 17 5 17 10 0 12 -1 12 -20 0z"/>
<path d="M4110 1660 c0 -6 7 -10 15 -10 8 0 15 2 15 4 0 2 -7 6 -15 10 -8 3
-15 1 -15 -4z"/>
<path d="M3176 1645 c4 -8 11 -15 16 -15 6 0 5 6 -2 15 -7 8 -14 15 -16 15 -2
0 -1 -7 2 -15z"/>
<path d="M3515 1650 c3 -5 10 -10 16 -10 5 0 9 5 9 10 0 6 -7 10 -16 10 -8 0
-12 -4 -9 -10z"/>
<path d="M4180 1650 c0 -5 -7 -10 -17 -10 -9 0 -14 -3 -10 -6 8 -8 47 5 47 17
0 5 -4 9 -10 9 -5 0 -10 -4 -10 -10z"/>
<path d="M4008 1643 c7 -3 16 -2 19 1 4 3 -2 6 -13 5 -11 0 -14 -3 -6 -6z"/>
<path d="M3390 1633 c0 -5 11 -8 25 -8 14 0 25 3 25 8 0 4 -11 7 -25 7 -14 0
-25 -3 -25 -7z"/>
<path d="M4080 1631 c0 -5 7 -11 14 -14 10 -4 13 -1 9 9 -6 15 -23 19 -23 5z"/>
<path d="M3621 1614 c6 -8 18 -14 26 -14 20 0 8 16 -17 23 -17 4 -19 3 -9 -9z"/>
<path d="M3010 1608 c33 -9 34 -11 15 -24 -18 -13 -18 -14 5 -14 13 0 20 3 17
6 -3 4 -2 15 3 24 8 16 4 18 -33 18 l-42 0 35 -10z"/>
<path d="M3091 1604 c0 -11 3 -14 6 -6 3 7 2 16 -1 19 -3 4 -6 -2 -5 -13z"/>
<path d="M3450 1616 c0 -3 15 -15 33 -27 23 -17 28 -18 18 -6 -14 18 -51 42
-51 33z"/>
<path d="M3555 1610 c3 -5 8 -10 11 -10 2 0 4 5 4 10 0 6 -5 10 -11 10 -5 0
-7 -4 -4 -10z"/>
<path d="M3264 1595 c4 -11 -1 -15 -19 -15 -18 0 -25 -5 -25 -20 0 -11 4 -20
8 -20 5 0 19 -9 32 -20 16 -14 27 -17 35 -10 14 12 25 3 25 -22 0 -27 17 -22
22 7 4 18 0 26 -13 30 -11 4 -19 11 -19 16 0 5 -4 9 -10 9 -5 0 -7 -7 -4 -15
4 -10 2 -13 -8 -10 -9 4 -12 18 -10 45 3 27 0 40 -8 40 -7 0 -10 -7 -6 -15z"/>
<path d="M3140 1590 c0 -5 5 -10 10 -10 6 0 10 5 10 10 0 6 -4 10 -10 10 -5 0
-10 -4 -10 -10z"/>
<path d="M3320 1589 c0 -5 5 -7 10 -4 6 3 10 8 10 11 0 2 -4 4 -10 4 -5 0 -10
-5 -10 -11z"/>
<path d="M3436 1591 c-3 -5 1 -11 9 -15 8 -3 15 -1 15 4 0 13 -18 22 -24 11z"/>
<path d="M3185 1580 c3 -5 8 -10 11 -10 2 0 4 5 4 10 0 6 -5 10 -11 10 -5 0
-7 -4 -4 -10z"/>
<path d="M3840 1580 c0 -5 5 -10 11 -10 5 0 7 5 4 10 -3 6 -8 10 -11 10 -2 0
-4 -4 -4 -10z"/>
<path d="M3605 1570 c-3 -6 -11 -8 -16 -5 -5 4 -8 -5 -7 -18 2 -18 7 -23 21
-19 14 4 16 7 5 13 -9 6 -6 9 10 9 14 0 22 5 20 12 -6 16 -25 21 -33 8z"/>
<path d="M3470 1562 c0 -10 40 -36 68 -44 45 -13 14 21 -35 39 -18 6 -33 8
-33 5z"/>
<path d="M3398 1535 c3 -18 11 -25 28 -25 12 0 26 5 29 10 4 6 11 8 16 5 5 -4
9 -4 9 -1 0 3 -13 12 -30 21 -16 9 -30 11 -30 6 0 -5 6 -12 13 -14 9 -4 9 -6
-1 -6 -7 -1 -15 6 -18 14 -10 24 -22 17 -16 -10z"/>
<path d="M3555 1550 c3 -5 8 -10 11 -10 2 0 4 5 4 10 0 6 -5 10 -11 10 -5 0
-7 -4 -4 -10z"/>
<path d="M3715 1530 c-8 -13 5 -13 25 0 13 8 13 10 -2 10 -9 0 -20 -4 -23 -10z"/>
<path d="M3844 1503 c-9 -14 -8 -21 4 -32 12 -12 13 -11 7 10 -7 21 -6 22 8
11 12 -10 16 -10 20 0 3 7 5 1 4 -14 -1 -18 -7 -28 -17 -28 -12 -1 -11 -4 4
-15 29 -22 36 -18 32 17 -3 28 -2 30 9 15 18 -25 28 -21 13 6 -7 12 -11 25
-10 30 1 4 -4 7 -10 7 -7 0 -22 3 -33 6 -13 3 -24 -2 -31 -13z"/>
<path d="M3780 1500 c20 -13 33 -13 25 0 -3 6 -14 10 -23 10 -15 0 -15 -2 -2
-10z"/>
<path d="M3450 1490 c0 -5 5 -10 11 -10 5 0 7 5 4 10 -3 6 -8 10 -11 10 -2 0
-4 -4 -4 -10z"/>
<path d="M3950 1470 c0 -5 5 -10 10 -10 6 0 10 5 10 10 0 6 -4 10 -10 10 -5 0
-10 -4 -10 -10z"/>
<path d="M3820 1450 c20 -13 33 -13 25 0 -3 6 -14 10 -23 10 -15 0 -15 -2 -2
-10z"/>
<path d="M4230 1452 c0 -12 19 -26 26 -19 2 2 -2 10 -11 17 -9 8 -15 8 -15 2z"/>
<path d="M3320 1446 c0 -2 7 -9 15 -16 12 -10 15 -10 15 4 0 9 -7 16 -15 16
-8 0 -15 -2 -15 -4z"/>
<path d="M3955 1440 c3 -5 11 -10 16 -10 6 0 7 5 4 10 -3 6 -11 10 -16 10 -6
0 -7 -4 -4 -10z"/>
<path d="M3929 1411 c12 -8 12 -12 -3 -26 -16 -17 -17 -16 -23 4 -5 20 -6 20
-25 -4 -14 -18 -17 -29 -10 -38 16 -20 26 -61 13 -53 -6 4 -11 2 -11 -4 0 -6
-4 -8 -10 -5 -5 3 -10 1 -10 -5 0 -7 6 -10 14 -7 17 7 30 -20 13 -27 -7 -2 -3
-5 8 -6 11 -1 34 -10 50 -21 17 -10 37 -22 45 -26 8 -3 26 -13 38 -22 13 -8
35 -15 49 -16 14 0 29 -8 34 -18 6 -9 18 -17 27 -16 14 0 14 2 -2 8 -14 5 -16
10 -7 15 9 6 9 11 0 22 -6 7 -9 20 -6 28 4 10 1 13 -9 9 -8 -3 -14 -2 -13 3 3
20 -2 28 -10 15 -7 -11 -14 -10 -38 9 -15 13 -21 20 -11 17 29 -10 30 6 1 20
l-28 13 35 -6 35 -5 -25 20 c-22 17 -23 21 -8 26 9 4 22 4 28 0 23 -14 8 14
-17 30 -23 15 -25 15 -20 2 3 -9 0 -23 -8 -31 -9 -8 -11 -16 -5 -18 6 -2 -3
-11 -20 -21 -24 -15 -30 -15 -30 -4 0 8 -11 22 -25 31 -14 9 -23 21 -20 26 3
5 15 0 25 -10 11 -11 28 -20 38 -19 11 0 12 2 4 6 -10 4 -10 8 -1 19 10 12 8
13 -7 8 -18 -6 -18 -5 1 9 20 17 20 17 -2 23 -23 6 -28 15 -16 27 3 4 17 -3
30 -15 15 -14 22 -17 18 -7 -7 19 -57 49 -82 49 -14 0 -15 -2 -4 -9z m-19 -84
c0 -5 -7 -4 -15 3 -8 7 -15 20 -15 29 1 13 3 13 15 -3 8 -11 15 -24 15 -29z
m10 -47 c0 -5 7 -7 16 -3 12 4 15 2 12 -8 -5 -15 14 -39 31 -39 6 0 11 -4 11
-10 0 -16 -18 -12 -60 16 -40 27 -46 35 -33 47 10 10 23 8 23 -3z m107 -56
c-3 -3 -12 -4 -19 -1 -8 3 -5 6 6 6 11 1 17 -2 13 -5z m16 -31 c-7 -2 -19 -2
-25 0 -7 3 -2 5 12 5 14 0 19 -2 13 -5z"/>
<path d="M3833 1245 c0 -11 4 -12 14 -4 7 6 13 13 13 15 0 2 -6 4 -13 4 -8 0
-14 -7 -14 -15z"/>
<path d="M4170 1240 c0 -5 5 -10 10 -10 6 0 10 5 10 10 0 6 -4 10 -10 10 -5 0
-10 -4 -10 -10z"/>
<path d="M3857 1214 c3 -7 9 -14 14 -14 14 0 10 17 -5 23 -10 4 -13 1 -9 -9z"/>
<path d="M3825 1183 c0 -21 3 -37 5 -36 3 1 13 5 22 8 16 6 16 9 2 36 -20 40
-31 36 -29 -8z"/>
<path d="M3900 1211 c0 -5 5 -13 10 -16 6 -3 10 -2 10 4 0 5 -4 13 -10 16 -5
3 -10 2 -10 -4z"/>
<path d="M3900 1170 c-13 -9 -7 -14 13 -11 4 0 7 -4 7 -10 0 -6 -7 -9 -15 -6
-8 4 -17 2 -20 -4 -4 -5 1 -12 10 -15 9 -4 14 -12 12 -19 -3 -6 1 -12 8 -12 7
0 11 7 8 15 -5 11 0 13 18 8 24 -7 24 -7 4 10 -13 11 -16 18 -8 21 14 5 6 33
-11 33 -6 0 -18 -5 -26 -10z"/>
<path d="M3960 1161 c0 -6 5 -13 10 -16 6 -3 10 1 10 9 0 9 -4 16 -10 16 -5 0
-10 -4 -10 -9z"/>
<path d="M3993 1135 c-16 -17 -17 -35 -3 -35 6 0 10 7 10 15 0 8 7 15 15 15 8
0 15 5 15 10 0 15 -23 12 -37 -5z"/>
<path d="M3930 1080 c-13 -8 -13 -11 3 -27 10 -10 17 -12 17 -5 0 6 7 9 15 6
18 -7 20 7 3 24 -14 14 -18 15 -38 2z"/>
<path d="M3880 1071 c0 -6 5 -13 10 -16 6 -3 10 1 10 9 0 9 -4 16 -10 16 -5 0
-10 -4 -10 -9z"/>
<path d="M2368 1943 c-24 -6 -23 -23 2 -23 11 0 20 7 20 15 0 8 -1 14 -2 14
-2 -1 -11 -3 -20 -6z"/>
<path d="M2275 1771 c-6 -11 9 -23 19 -14 9 9 7 23 -3 23 -6 0 -12 -4 -16 -9z"/>
<path d="M2221 1660 c-1 -26 11 -60 20 -54 5 3 9 14 9 25 0 11 -4 18 -9 14 -5
-3 -12 3 -14 12 -3 13 -5 14 -6 3z"/>
<path d="M4462 1549 c2 -7 10 -15 17 -17 8 -3 12 1 9 9 -2 7 -10 15 -17 17 -8
3 -12 -1 -9 -9z"/>
<path d="M2730 1490 c0 -5 9 -10 20 -10 11 0 20 5 20 10 0 6 -9 10 -20 10 -11
0 -20 -4 -20 -10z"/>
<path d="M3585 1045 c-3 -8 -7 -21 -9 -28 -3 -9 4 -12 25 -9 34 5 38 21 8 29
-16 4 -17 8 -7 14 10 7 10 9 0 9 -7 0 -15 -7 -17 -15z"/>
<path d="M3483 879 c-13 -5 -23 -13 -23 -18 0 -21 13 -41 27 -41 9 0 11 -5 7
-12 -5 -8 -1 -8 10 1 16 14 16 16 -11 30 l-28 16 28 3 c15 2 27 7 27 12 0 15
-14 18 -37 9z"/>
<path d="M3220 1130 c-8 -16 -8 -20 4 -20 9 0 20 -9 26 -20 6 -11 18 -20 28
-20 12 0 8 8 -16 29 -37 34 -40 46 -12 38 11 -3 18 -1 14 4 -9 16 -33 10 -44
-11z"/>
<path d="M3570 750 c0 -5 5 -10 11 -10 5 0 7 5 4 10 -3 6 -8 10 -11 10 -2 0
-4 -4 -4 -10z"/>
<path d="M3608 733 c6 -2 18 -2 25 0 6 3 1 5 -13 5 -14 0 -19 -2 -12 -5z"/>
<path d="M1905 4996 c-173 -45 -299 -93 -480 -181 -169 -82 -381 -217 -388
-247 -3 -11 -10 -17 -16 -13 -15 9 -163 -113 -155 -127 4 -6 3 -8 -3 -5 -5 3
-22 -5 -39 -19 l-29 -24 152 4 c152 5 153 5 240 44 48 22 111 47 139 56 l52
17 7 87 c5 69 11 92 28 110 39 42 97 66 159 66 47 -1 58 2 65 20 7 15 20 20
51 22 43 2 292 117 292 135 0 5 8 17 18 27 39 41 55 62 46 62 -5 -1 -67 -16
-139 -34z m-881 -506 c35 -13 36 -43 1 -34 -15 4 -25 2 -25 -5 0 -6 6 -11 14
-11 15 0 42 -28 34 -35 -2 -3 -18 -1 -34 4 -16 4 -39 4 -52 0 -12 -5 -22 -4
-22 1 0 4 -3 16 -7 26 -5 13 -3 16 10 11 23 -9 33 14 13 29 -16 11 -16 13 6
17 13 2 26 5 30 6 4 0 18 -3 32 -9z"/>
<path d="M2092 4958 c3 -7 13 -15 22 -16 12 -3 17 1 14 10 -3 7 -13 15 -22 16
-12 3 -17 -1 -14 -10z"/>
<path d="M2181 4953 c-1 -7 -8 -10 -16 -7 -11 5 -15 -1 -15 -20 0 -15 7 -29
16 -33 8 -3 13 -12 10 -19 -3 -9 2 -14 14 -14 14 0 20 7 20 23 0 18 2 19 10 7
5 -8 10 -10 10 -3 0 6 9 9 20 6 19 -5 90 21 90 33 0 3 -13 3 -28 -1 -20 -4
-36 0 -55 15 -21 16 -31 19 -46 11 -14 -8 -21 -8 -24 2 -4 9 -6 9 -6 0z"/>
<path d="M3409 4871 c19 -17 20 -21 6 -21 -9 0 -15 -6 -13 -12 5 -15 58 -24
58 -10 0 6 12 9 28 8 31 -1 43 17 12 22 -11 2 -20 8 -20 13 0 5 -10 8 -22 7
-13 -1 -34 2 -48 6 l-25 7 24 -20z"/>
<path d="M1990 4868 c0 -6 -9 -21 -19 -32 -17 -18 -18 -24 -6 -39 16 -23 30
-8 34 38 1 18 47 20 54 3 2 -7 8 -9 13 -5 12 11 -32 47 -57 47 -10 0 -19 -5
-19 -12z"/>
<path d="M2380 4855 c-17 -21 1 -35 45 -35 23 0 26 3 15 10 -8 5 -15 15 -15
22 0 19 -30 21 -45 3z"/>
<path d="M2213 4848 c-13 -6 -23 -15 -23 -20 0 -11 27 -10 35 2 3 5 12 7 20 3
9 -3 15 1 15 11 0 18 -15 19 -47 4z"/>
<path d="M2467 4839 c7 -7 15 -10 18 -7 3 3 -2 9 -12 12 -14 6 -15 5 -6 -5z"/>
<path d="M2610 4840 c0 -5 9 -10 21 -10 11 0 17 5 14 10 -3 6 -13 10 -21 10
-8 0 -14 -4 -14 -10z"/>
<path d="M1790 4825 l-25 -14 23 -1 c13 0 30 7 38 15 20 20 -1 20 -36 0z"/>
<path d="M2518 4833 c7 -3 16 -2 19 1 4 3 -2 6 -13 5 -11 0 -14 -3 -6 -6z"/>
<path d="M3460 4795 c0 -8 -8 -15 -17 -17 -15 -3 -12 -10 17 -36 41 -38 90
-44 90 -12 0 27 36 48 100 59 l55 9 -47 1 c-26 0 -59 -4 -73 -11 -22 -10 -28
-9 -36 3 -7 12 -9 12 -9 -1 0 -13 -1 -13 -10 0 -9 13 -11 13 -20 0 -5 -8 -10
-10 -10 -4 0 7 -9 14 -20 17 -13 3 -20 0 -20 -8z"/>
<path d="M1767 4780 c-12 -15 -25 -19 -45 -15 l-27 5 30 -14 c17 -8 33 -12 38
-9 4 2 7 -1 7 -6 0 -6 -4 -11 -10 -11 -5 0 -10 -7 -10 -16 0 -13 6 -15 27 -9
24 6 25 5 12 -11 -12 -15 -12 -17 1 -12 8 2 16 11 16 19 1 8 2 20 3 27 1 10 4
10 15 0 8 -7 12 -16 9 -20 -6 -11 -5 -10 52 11 27 10 51 23 53 29 5 15 -74 35
-115 30 -32 -4 -45 5 -20 15 8 4 7 6 -3 6 -9 1 -23 -8 -33 -19z m76 -35 c-7
-21 -13 -19 -13 6 0 11 4 18 10 14 5 -3 7 -12 3 -20z m-43 -5 c0 -5 -4 -10
-10 -10 -5 0 -10 5 -10 10 0 6 5 10 10 10 6 0 10 -4 10 -10z"/>
<path d="M2080 4740 c30 -24 44 -25 36 -4 -3 9 -6 18 -6 20 0 2 -12 4 -27 4
l-28 0 25 -20z"/>
<path d="M2200 4748 c0 -21 36 -43 45 -28 3 5 -1 10 -9 10 -8 0 -20 8 -25 18
-10 16 -10 16 -11 0z"/>
<path d="M2394 4723 c9 -35 8 -33 34 -26 30 8 28 20 -9 39 l-32 16 7 -29z"/>
<path d="M2140 4730 c0 -5 5 -10 11 -10 5 0 7 5 4 10 -3 6 -8 10 -11 10 -2 0
-4 -4 -4 -10z"/>
<path d="M2470 4725 c14 -16 46 -20 54 -6 6 8 -25 21 -53 21 -11 0 -11 -3 -1
-15z"/>
<path d="M1712 4714 c10 -10 20 -16 22 -13 3 3 -5 11 -17 18 -21 13 -21 12 -5
-5z"/>
<path d="M2640 4690 c-12 -8 -11 -10 8 -10 12 0 22 5 22 10 0 13 -11 13 -30 0z"/>
<path d="M1825 4630 c4 -6 11 -8 16 -5 14 9 11 15 -7 15 -8 0 -12 -5 -9 -10z"/>
<path d="M2020 4630 c-10 -6 -8 -10 6 -18 11 -5 25 -7 32 -5 7 3 28 -5 48 -16
37 -22 59 -27 49 -12 -3 5 -1 12 5 16 18 11 10 23 -22 34 -39 12 -100 12 -118
1z"/>
<path d="M3945 4598 c-5 -42 -25 -287 -25 -314 0 -8 -9 -14 -21 -14 -11 0 -17
5 -14 10 3 6 1 10 -4 10 -6 0 -11 5 -11 11 0 6 10 8 23 5 12 -3 16 -3 9 0 -9
4 -10 10 -2 18 8 10 -5 17 -55 31 -35 9 -70 24 -77 32 -11 13 -13 13 -19 -4
-4 -10 -8 -37 -8 -60 -1 -47 17 -66 81 -84 30 -8 44 -6 68 6 30 15 30 15 30
-12 0 -40 32 -56 120 -59 41 -2 65 0 52 2 -22 5 -23 7 -7 30 9 14 13 29 10 34
-3 6 -1 10 5 10 6 0 10 6 9 13 -4 18 12 120 21 137 4 8 11 34 15 57 l7 41 -95
71 c-51 39 -96 71 -100 71 -3 0 -8 -19 -12 -42z"/>
<path d="M1864 4613 c1 -13 -5 -17 -18 -15 -18 3 -18 2 -5 -14 7 -9 19 -28 24
-41 l10 -24 22 20 c14 14 20 28 16 39 -7 21 -33 52 -43 52 -4 0 -7 -8 -6 -17z"/>
<path d="M2370 4611 c0 -13 46 -41 68 -41 10 0 23 -5 28 -10 8 -8 19 -7 37 1
21 9 30 9 41 0 15 -13 36 -7 36 10 0 5 -7 9 -15 9 -7 0 -18 7 -22 15 -9 16
-72 25 -71 10 1 -5 9 -9 20 -7 10 2 18 -2 18 -7 0 -18 -40 -12 -62 9 -22 20
-78 28 -78 11z"/>
<path d="M1930 4594 c0 -8 5 -12 10 -9 6 3 10 10 10 16 0 5 -4 9 -10 9 -5 0
-10 -7 -10 -16z"/>
<path d="M2057 4574 c-15 -15 -6 -24 23 -24 17 0 30 5 30 10 0 6 -4 10 -9 10
-5 0 -16 2 -23 5 -8 3 -17 2 -21 -1z"/>
<path d="M3647 4526 c-6 -59 2 -71 59 -91 32 -11 42 -11 54 0 8 7 35 19 59 26
35 10 40 14 25 20 -15 6 -16 8 -3 8 9 1 21 7 28 14 8 11 -5 16 -67 25 -42 7
-93 21 -113 30 l-37 18 -5 -50z"/>
<path d="M1975 4560 c-3 -5 1 -10 9 -10 9 0 16 5 16 10 0 6 -4 10 -9 10 -6 0
-13 -4 -16 -10z"/>
<path d="M2230 4557 c0 -9 11 -14 31 -15 34 -1 29 11 -8 23 -16 4 -23 2 -23
-8z"/>
<path d="M2725 4550 c-3 -5 -2 -10 4 -10 5 0 13 5 16 10 3 6 2 10 -4 10 -5 0
-13 -4 -16 -10z"/>
<path d="M1940 4541 c0 -6 5 -13 10 -16 6 -3 10 1 10 9 0 9 -4 16 -10 16 -5 0
-10 -4 -10 -9z"/>
<path d="M2330 4515 c0 -19 5 -35 10 -35 6 0 10 6 10 14 0 8 8 17 18 21 16 6
16 7 -2 21 -30 21 -36 17 -36 -21z"/>
<path d="M1660 4526 c-3 -2 -24 -7 -48 -9 -47 -6 -102 -36 -132 -74 -12 -15
-26 -23 -35 -19 -25 9 -17 -13 21 -59 33 -41 37 -43 67 -34 39 11 60 12 54 2
-3 -5 38 -8 92 -8 86 0 102 -4 154 -29 35 -18 69 -45 88 -70 16 -23 37 -50 45
-61 12 -17 12 -14 -1 19 -24 61 -49 88 -124 133 -41 25 -42 27 -22 35 19 7 20
11 10 30 -16 31 -28 38 -67 38 -18 0 -31 4 -27 9 3 6 -5 20 -17 31 l-23 22 34
-7 c23 -5 31 -4 27 4 -4 6 -15 11 -26 11 -10 0 -21 7 -24 16 -3 9 -13 14 -20
11 -8 -3 -16 -1 -18 4 -2 6 -6 8 -8 5z m24 -58 c4 -17 2 -28 -4 -28 -5 0 -10
14 -10 32 0 36 4 35 14 -4z m-47 -25 c-3 -10 -5 -4 -5 12 0 17 2 24 5 18 2 -7
2 -21 0 -30z m83 -13 c0 -5 -4 -10 -10 -10 -5 0 -10 5 -10 10 0 6 5 10 10 10
6 0 10 -4 10 -10z"/>
<path d="M2124 4515 c-4 -8 -10 -15 -16 -15 -5 0 -6 5 -3 10 9 15 -21 12 -33
-2 -5 -7 -13 -24 -17 -37 -6 -20 -5 -23 11 -17 17 7 17 6 -1 -14 -21 -23 -59
-25 -94 -6 -24 13 -24 14 -4 25 15 7 20 17 16 31 -7 26 -23 26 -23 0 0 -31
-30 -37 -52 -11 l-18 23 0 -25 c0 -40 70 -67 172 -67 71 0 81 -3 104 -25 14
-14 30 -23 35 -19 6 3 2 12 -10 21 -25 17 -26 26 -5 48 13 12 14 19 4 30 -7 8
-21 15 -31 15 -21 0 -26 16 -7 22 13 5 2 28 -13 28 -5 0 -12 -7 -15 -15z m3
-81 c-3 -3 -12 -4 -19 -1 -8 3 -5 6 6 6 11 1 17 -2 13 -5z"/>
<path d="M2220 4515 c0 -9 6 -12 15 -9 8 4 15 10 15 15 0 5 -7 9 -15 9 -8 0
-15 -7 -15 -15z"/>
<path d="M2575 4520 c-3 -5 1 -10 9 -10 9 0 16 5 16 10 0 6 -4 10 -9 10 -6 0
-13 -4 -16 -10z"/>
<path d="M2257 4499 c-20 -12 -23 -45 -4 -52 22 -7 47 5 47 23 0 26 -22 40
-43 29z"/>
<path d="M2710 4500 c0 -5 5 -10 10 -10 6 0 10 5 10 10 0 6 -4 10 -10 10 -5 0
-10 -4 -10 -10z"/>
<path d="M2643 4474 c12 -4 16 -12 12 -24 -3 -11 0 -20 11 -24 12 -5 15 -2 10
10 -4 12 0 15 17 12 15 -2 23 -11 25 -28 7 -49 41 -67 141 -75 53 -3 67 -1 77
13 18 23 17 32 -4 32 -10 0 -27 7 -38 15 -10 8 -28 15 -40 15 -11 0 -34 7 -51
15 -28 14 -79 28 -148 39 -16 3 -22 3 -12 0z"/>
<path d="M2380 4449 c0 -6 -9 -9 -20 -6 -25 6 -27 -18 -2 -32 15 -9 15 -10 -4
-11 -12 0 -28 9 -35 20 -14 20 -14 20 -44 -7 l-29 -28 34 -6 c19 -3 45 -11 58
-18 12 -7 32 -9 42 -6 16 5 20 1 21 -17 1 -19 2 -20 6 -4 4 15 7 16 15 5 7
-11 11 -11 15 -1 2 6 13 12 24 12 10 0 19 6 19 13 0 6 5 4 11 -5 12 -21 49
-24 67 -6 21 21 13 29 -13 12 -23 -15 -25 -15 -31 0 -3 9 -4 23 0 31 3 10 -3
17 -19 21 -28 7 -45 -1 -45 -22 0 -17 12 -18 28 -2 8 8 12 8 12 1 0 -16 -26
-23 -60 -16 -36 7 -45 18 -42 55 1 15 0 28 -3 28 -3 0 -5 -5 -5 -11z"/>
<path d="M2465 4450 c3 -5 11 -10 16 -10 6 0 7 5 4 10 -3 6 -11 10 -16 10 -6
0 -7 -4 -4 -10z"/>
<path d="M2660 4385 c0 -10 9 -15 27 -15 29 0 29 2 -4 19 -19 10 -23 9 -23 -4z"/>
<path d="M2553 4327 c-31 -11 -50 -32 -35 -40 13 -8 94 32 87 43 -7 11 -8 11
-52 -3z"/>
<path d="M2738 4313 c7 -3 16 -2 19 1 4 3 -2 6 -13 5 -11 0 -14 -3 -6 -6z"/>
<path d="M4332 4308 c-31 -31 -8 -62 63 -84 l46 -13 -41 49 c-50 60 -54 62
-68 48z"/>
<path d="M2863 4254 c-3 -9 0 -21 7 -27 10 -9 11 -9 6 1 -9 16 16 16 32 0 10
-10 15 -10 22 2 11 18 10 18 -29 30 -25 7 -33 6 -38 -6z"/>
<path d="M2618 4243 c6 -2 18 -2 25 0 6 3 1 5 -13 5 -14 0 -19 -2 -12 -5z"/>
<path d="M2820 4240 c0 -5 5 -10 10 -10 6 0 10 5 10 10 0 6 -4 10 -10 10 -5 0
-10 -4 -10 -10z"/>
<path d="M2616 4211 c-4 -5 -2 -12 3 -15 5 -4 12 -2 15 3 4 5 2 12 -3 15 -5 4
-12 2 -15 -3z"/>
<path d="M2535 4140 c-3 -5 -4 -10 -1 -10 2 0 11 -3 20 -6 11 -4 16 -1 16 10
0 18 -25 22 -35 6z"/>
<path d="M2715 4140 c-3 -5 -4 -10 -1 -10 2 0 11 -3 20 -6 11 -4 16 -1 16 10
0 18 -25 22 -35 6z"/>
<path d="M2760 4140 c0 -6 7 -10 15 -10 8 0 15 2 15 4 0 2 -7 6 -15 10 -8 3
-15 1 -15 -4z"/>
<path d="M2648 4103 c-10 -2 -18 -9 -18 -15 0 -5 7 -7 16 -4 9 3 24 6 35 6 10
0 19 5 19 10 0 10 -21 11 -52 3z"/>
<path d="M2520 4080 c0 -5 4 -10 9 -10 6 0 13 5 16 10 3 6 -1 10 -9 10 -9 0
-16 -4 -16 -10z"/>
<path d="M2830 4081 c0 -5 5 -13 10 -16 6 -3 10 -2 10 4 0 5 -4 13 -10 16 -5
3 -10 2 -10 -4z"/>
<path d="M2870 4080 c0 -5 5 -10 11 -10 5 0 7 5 4 10 -3 6 -8 10 -11 10 -2 0
-4 -4 -4 -10z"/>
<path d="M2360 4050 c0 -5 9 -10 21 -10 11 0 17 5 14 10 -3 6 -13 10 -21 10
-8 0 -14 -4 -14 -10z"/>
<path d="M2475 4050 c3 -5 8 -10 11 -10 2 0 4 5 4 10 0 6 -5 10 -11 10 -5 0
-7 -4 -4 -10z"/>
<path d="M2599 4000 c13 -11 31 -20 40 -19 9 1 5 6 -11 12 -16 6 -28 14 -28
19 0 4 -6 8 -12 8 -7 -1 -2 -10 11 -20z"/>
<path d="M2735 3990 c3 -5 13 -10 21 -10 8 0 12 5 9 10 -3 6 -13 10 -21 10 -8
0 -12 -4 -9 -10z"/>
<path d="M2835 3990 c3 -5 14 -10 23 -10 15 0 15 2 2 10 -20 13 -33 13 -25 0z"/>
<path d="M2920 3980 c0 -5 5 -10 10 -10 6 0 10 5 10 10 0 6 -4 10 -10 10 -5 0
-10 -4 -10 -10z"/>
<path d="M2580 3940 c0 -5 9 -10 20 -10 11 0 20 5 20 10 0 6 -9 10 -20 10 -11
0 -20 -4 -20 -10z"/>
<path d="M2790 3930 c0 -5 5 -10 11 -10 5 0 7 5 4 10 -3 6 -8 10 -11 10 -2 0
-4 -4 -4 -10z"/>
<path d="M2730 3890 c11 -21 22 -25 33 -13 9 9 -12 33 -30 33 -11 0 -11 -4 -3
-20z"/>
<path d="M2460 3879 c0 -5 5 -7 10 -4 6 3 10 8 10 11 0 2 -4 4 -10 4 -5 0 -10
-5 -10 -11z"/>
<path d="M2640 3880 c0 -5 7 -10 16 -10 8 0 12 5 9 10 -3 6 -10 10 -16 10 -5
0 -9 -4 -9 -10z"/>
<path d="M2510 3870 c0 -6 7 -10 15 -10 8 0 15 2 15 4 0 2 -7 6 -15 10 -8 3
-15 1 -15 -4z"/>
<path d="M3085 3860 c-3 -5 -1 -10 4 -10 6 0 11 5 11 10 0 6 -2 10 -4 10 -3 0
-8 -4 -11 -10z"/>
<path d="M2440 3830 c0 -5 6 -10 13 -10 6 0 24 -7 40 -14 15 -8 27 -11 27 -5
0 5 -4 9 -10 9 -5 0 -10 7 -10 15 0 10 -10 15 -30 15 -16 0 -30 -4 -30 -10z"/>
<path d="M3005 3830 c3 -5 8 -10 11 -10 2 0 4 5 4 10 0 6 -5 10 -11 10 -5 0
-7 -4 -4 -10z"/>
<path d="M2887 3815 c-14 -10 -14 -14 4 -44 18 -29 23 -32 52 -26 43 10 45 13
17 32 -13 9 -31 24 -40 33 -13 13 -20 14 -33 5z"/>
<path d="M3050 3816 c0 -9 5 -16 10 -16 6 0 10 4 10 9 0 6 -4 13 -10 16 -5 3
-10 -1 -10 -9z"/>
<path d="M3080 3800 c0 -5 5 -10 10 -10 6 0 10 5 10 10 0 6 -4 10 -10 10 -5 0
-10 -4 -10 -10z"/>
<path d="M3173 3770 c1 -11 5 -20 9 -20 11 0 10 28 -1 35 -6 3 -9 -4 -8 -15z"/>
<path d="M3045 3770 c-3 -6 1 -13 9 -16 9 -3 16 -12 16 -20 0 -16 16 -19 25
-4 3 5 -3 18 -15 30 -23 23 -26 24 -35 10z"/>
<path d="M3520 3763 c0 -13 4 -23 8 -23 12 0 32 22 32 35 0 5 -5 3 -10 -5 -9
-13 -11 -13 -20 0 -8 12 -10 11 -10 -7z"/>
<path d="M2545 3750 c3 -5 8 -10 11 -10 2 0 4 5 4 10 0 6 -5 10 -11 10 -5 0
-7 -4 -4 -10z"/>
<path d="M2610 3751 c0 -5 5 -13 10 -16 6 -3 10 -2 10 4 0 5 -4 13 -10 16 -5
3 -10 2 -10 -4z"/>
<path d="M2640 3740 c0 -5 9 -14 19 -20 25 -13 31 -13 31 0 0 6 -7 10 -15 10
-8 0 -15 5 -15 10 0 6 -4 10 -10 10 -5 0 -10 -4 -10 -10z"/>
<path d="M3110 3740 c0 -6 7 -10 15 -10 8 0 15 2 15 4 0 2 -7 6 -15 10 -8 3
-15 1 -15 -4z"/>
<path d="M2970 3715 c0 -9 5 -15 11 -13 6 2 11 8 11 13 0 5 -5 11 -11 13 -6 2
-11 -4 -11 -13z"/>
<path d="M3150 3719 c0 -5 5 -7 10 -4 6 3 10 8 10 11 0 2 -4 4 -10 4 -5 0 -10
-5 -10 -11z"/>
<path d="M2585 3677 c-4 -10 -5 -21 -1 -24 10 -10 18 4 13 24 -4 17 -4 17 -12
0z"/>
<path d="M2490 3659 c10 -17 56 -37 65 -28 2 3 -14 14 -36 26 -36 20 -38 20
-29 2z"/>
<path d="M2623 3645 c0 -8 4 -12 9 -9 4 3 8 9 8 15 0 5 -4 9 -8 9 -5 0 -9 -7
-9 -15z"/>
<path d="M2770 3650 c0 -9 28 -23 53 -25 29 -4 19 10 -18 21 -19 6 -35 8 -35
4z"/>
<path d="M3188 3653 c7 -3 16 -2 19 1 4 3 -2 6 -13 5 -11 0 -14 -3 -6 -6z"/>
<path d="M3565 3650 c-3 -5 -1 -10 4 -10 6 0 11 5 11 10 0 6 -2 10 -4 10 -3 0
-8 -4 -11 -10z"/>
<path d="M2444 3637 c3 -10 6 -21 6 -23 0 -2 12 -4 26 -4 16 0 24 5 21 13 -2
6 -13 11 -23 10 -10 -1 -23 4 -27 10 -6 8 -7 5 -3 -6z"/>
<path d="M2650 3600 c0 -6 7 -10 15 -10 8 0 15 2 15 4 0 2 -7 6 -15 10 -8 3
-15 1 -15 -4z"/>
<path d="M3148 3598 c6 -6 18 -8 28 -6 14 3 12 5 -9 10 -19 3 -25 2 -19 -4z"/>
<path d="M2950 3590 c0 -5 5 -10 11 -10 5 0 7 5 4 10 -3 6 -8 10 -11 10 -2 0
-4 -4 -4 -10z"/>
<path d="M2483 3573 c9 -2 23 -2 30 0 6 3 -1 5 -18 5 -16 0 -22 -2 -12 -5z"/>
<path d="M2440 3566 c0 -19 29 -51 45 -50 47 2 48 3 34 20 -7 8 -21 13 -30 11
-10 -3 -20 1 -23 9 -5 12 -26 20 -26 10z"/>
<path d="M2930 3562 c0 -16 93 -63 119 -59 25 3 25 4 -9 17 -19 8 -37 13 -40
13 -3 0 -17 8 -32 18 -28 20 -38 23 -38 11z"/>
<path d="M3115 3550 c-3 -5 3 -10 15 -10 12 0 18 5 15 10 -3 6 -10 10 -15 10
-5 0 -12 -4 -15 -10z"/>
<path d="M2900 3540 c8 -5 20 -10 25 -10 6 0 3 5 -5 10 -8 5 -19 10 -25 10 -5
0 -3 -5 5 -10z"/>
<path d="M3190 3540 c-9 -6 -10 -10 -3 -10 6 0 15 5 18 10 8 12 4 12 -15 0z"/>
<path d="M2430 3530 c0 -5 5 -10 11 -10 5 0 7 5 4 10 -3 6 -8 10 -11 10 -2 0
-4 -4 -4 -10z"/>
<path d="M2840 3531 c0 -11 26 -22 34 -14 3 3 3 10 0 14 -7 12 -34 11 -34 0z"/>
<path d="M3105 3510 c-3 -5 -1 -10 4 -10 6 0 11 5 11 10 0 6 -2 10 -4 10 -3 0
-8 -4 -11 -10z"/>
<path d="M2830 3490 c0 -5 5 -10 10 -10 6 0 10 5 10 10 0 6 -4 10 -10 10 -5 0
-10 -4 -10 -10z"/>
<path d="M2580 3480 c0 -5 7 -7 15 -4 8 4 15 8 15 10 0 2 -7 4 -15 4 -8 0 -15
-4 -15 -10z"/>
<path d="M3140 3486 c0 -4 59 -36 67 -36 3 0 -2 6 -9 14 -14 14 -58 31 -58 22z"/>
<path d="M3230 3480 c0 -5 5 -10 10 -10 6 0 10 5 10 10 0 6 -4 10 -10 10 -5 0
-10 -4 -10 -10z"/>
<path d="M2920 3464 c0 -9 5 -14 12 -12 18 6 21 28 4 28 -9 0 -16 -7 -16 -16z"/>
<path d="M2550 3462 c0 -4 9 -15 20 -25 11 -9 20 -13 20 -9 0 4 -9 15 -20 25
-11 9 -20 13 -20 9z"/>
<path d="M2695 3460 c3 -5 17 -10 30 -10 28 0 95 -30 95 -42 0 -4 7 -8 15 -8
8 0 15 7 15 16 0 8 -4 12 -10 9 -5 -3 -10 -2 -10 3 0 5 -6 9 -12 10 -7 0 -31
7 -53 16 -46 18 -79 20 -70 6z"/>
<path d="M2425 3450 c-3 -4 2 -11 11 -14 22 -8 34 -7 34 3 0 12 -39 21 -45 11z"/>
<path d="M2656 3445 c4 -8 10 -12 15 -9 14 8 10 24 -6 24 -9 0 -12 -6 -9 -15z"/>
<path d="M2495 3440 c-3 -5 1 -10 9 -10 9 0 16 5 16 10 0 6 -4 10 -9 10 -6 0
-13 -4 -16 -10z"/>
<path d="M2685 3430 c-8 -12 26 -25 83 -33 52 -6 56 10 5 18 -21 4 -48 10 -60
15 -14 6 -25 6 -28 0z"/>
<path d="M2541 3423 c-9 -4 -5 -12 15 -29 l29 -23 -30 -2 c-16 -1 -33 -1 -37
0 -5 0 -8 -3 -8 -9 0 -5 -4 -9 -9 -7 -5 1 -17 -7 -26 -18 -9 -11 -14 -14 -10
-7 4 7 0 12 -9 12 -12 0 -13 -5 -4 -31 l11 -31 23 28 c13 15 24 30 24 34 0 12
63 19 80 9 12 -7 10 -8 -7 -9 -13 0 -23 -4 -23 -10 0 -5 10 -8 23 -6 14 2 21
10 20 22 -1 10 6 23 14 29 14 10 12 13 -12 19 -16 4 -34 13 -39 21 -6 7 -17
10 -25 8z"/>
<path d="M2640 3380 c0 -5 14 -10 30 -10 17 0 30 -4 30 -9 0 -5 -6 -9 -12 -8
-36 1 -47 -4 -42 -18 8 -19 38 -19 67 -1 22 14 87 11 87 -4 0 -4 -6 -8 -12 -7
-48 1 -51 -5 -13 -23 44 -21 56 -24 54 -12 -3 18 2 26 9 15 4 -7 13 -9 20 -4
22 13 -34 64 -64 58 -13 -2 -24 0 -24 4 0 5 -13 9 -29 9 -17 0 -33 5 -36 10
-3 6 -19 10 -36 10 -16 0 -29 -4 -29 -10z"/>
<path d="M2863 3351 c1 -11 8 -23 15 -26 12 -4 12 -8 2 -21 -10 -11 -10 -18
-2 -26 15 -15 43 8 35 28 -3 8 1 14 11 14 14 0 14 2 -1 18 -12 12 -21 15 -26
8 -5 -7 -12 -4 -22 8 -13 18 -14 18 -12 -3z"/>
</g>
</svg>
